<svg width="19" height="25" viewBox="0 0 19 25" fill="none" xmlns="http://www.w3.org/2000/svg">
    <path
        d="M5.22413 21.1139C6.00639 21.1139 6.64729 21.7685 6.64729 22.577C6.64729 23.376 6.00639 24.0305 5.22413 24.0305C4.43244 24.0305 3.79154 23.376 3.79154 22.577C3.79154 21.7685 4.43244 21.1139 5.22413 21.1139ZM15.8271 21.1139C16.6094 21.1139 17.2503 21.7685 17.2503 22.577C17.2503 23.376 16.6094 24.0305 15.8271 24.0305C15.0355 24.0305 14.3946 23.376 14.3946 22.577C14.3946 21.7685 15.0355 21.1139 15.8271 21.1139ZM0.935987 5.17426L3.18383 5.51982C3.50427 5.57854 3.73989 5.84709 3.76817 6.17437L3.94724 8.33052C3.97552 8.63951 4.22056 8.87052 4.52216 8.87052H17.2505C17.8254 8.87052 18.2024 9.07266 18.5794 9.51545C18.9564 9.95823 19.0224 10.5935 18.9375 11.1701L18.0422 17.4846C17.8725 18.6984 16.8546 19.5926 15.6577 19.5926H5.37511C4.1216 19.5926 3.08486 18.6117 2.98119 17.3411L2.1141 6.84817L0.690939 6.5979C0.313943 6.53052 0.0500461 6.15512 0.11602 5.77009C0.181995 5.3764 0.549566 5.11554 0.935987 5.17426ZM14.1497 12.4311H11.539C11.1432 12.4311 10.8321 12.7487 10.8321 13.153C10.8321 13.5476 11.1432 13.8749 11.539 13.8749H14.1497C14.5455 13.8749 14.8566 13.5476 14.8566 13.153C14.8566 12.7487 14.5455 12.4311 14.1497 12.4311Z"
        fill="#231F20" />
    <path d="M10.2635 1.53809L10.2635 5.89143" stroke="#231F20" stroke-width="1.45111"
        stroke-linecap="round" />
    <path d="M8.08698 3.71509H12.0775" stroke="#231F20" stroke-width="1.45111"
        stroke-linecap="round" />
</svg>