<svg width="20" height="19" viewBox="0 0 20 19"
    fill="none"
    xmlns="http://www.w3.org/2000/svg">
    <g clip-path="url(#clip0_235_5572)">
        <path fill-rule="evenodd"
            clip-rule="evenodd"
            d="M10.7515 2.05675C11.643 1.6204 12.4206 1.47668 13.627 1.4767C16.7143 1.48948 18.9993 4.09322 18.9993 7.40992C18.9993 9.94148 17.5878 12.3869 14.9586 14.7516C13.5786 15.9928 11.8165 17.2211 10.5546 17.8746L9.83268 18.2485L9.11069 17.8746C7.84879 17.2211 6.08676 15.9928 4.70672 14.7516C2.07754 12.3869 0.666016 9.94148 0.666016 7.40992C0.666016 4.05774 2.92972 1.47668 6.04481 1.47668C7.20792 1.47668 8.02545 1.634 8.93419 2.08347C9.25058 2.23995 9.54785 2.42557 9.82433 2.63982C10.1118 2.41285 10.4215 2.2183 10.7515 2.05675ZM13.8441 13.5124C16.1544 11.4345 17.3326 9.39327 17.3326 7.40992C17.3326 4.96749 15.7395 3.15213 13.6235 3.14336C12.6551 3.14335 12.1209 3.2421 11.4842 3.55371C11.0926 3.74538 10.7452 4.00415 10.4422 4.33298L9.83463 4.99227L9.22146 4.33816C8.92508 4.022 8.58269 3.76899 8.1953 3.57739C7.53946 3.25301 6.96959 3.14335 6.04481 3.14335C3.90239 3.14335 2.33269 4.93312 2.33269 7.40992C2.33269 9.39327 3.51087 11.4345 5.82125 13.5124C7.08087 14.6453 8.70022 15.7775 9.83268 16.3714C10.9651 15.7775 12.5845 14.6453 13.8441 13.5124Z"
            fill="#B6B6B6" />
    </g>
    <defs>
        <clipPath id="clip0_235_5572">
            <rect width="20" height="18"
                fill="white"
                transform="translate(-0.00195312 0.809998)" />
        </clipPath>
    </defs>
</svg>