<svg width="96" height="96" viewBox="0 0 96 96" fill="none" xmlns="http://www.w3.org/2000/svg">
<g clip-path="url(#clip0_182_4881)">
<g clip-path="url(#clip1_182_4881)">
<g clip-path="url(#clip2_182_4881)">
<mask id="mask0_182_4881" style="mask-type:luminance" maskUnits="userSpaceOnUse" x="1" y="0" width="95" height="95">
<path d="M95.8205 0.261353H1.9209V94.161H95.8205V0.261353Z" fill="white"/>
</mask>
<g mask="url(#mask0_182_4881)">
<path d="M22.4146 65.9807C21.6381 65.3303 20.4814 65.4326 19.8311 66.209L15.2453 71.6841L13.5879 70.2799C12.815 69.6252 11.658 69.7209 11.0031 70.4938C10.3483 71.2665 10.4441 72.4239 11.2169 73.0786L14.2815 75.6749C14.6139 75.9567 15.0345 76.1096 15.467 76.1096C15.519 76.1096 15.5711 76.1073 15.6234 76.1028C16.1098 76.0612 16.5597 75.8275 16.873 75.4532L22.6433 68.5642C23.2933 67.7878 23.1909 66.6312 22.4146 65.9807Z" fill="#E7C647"/>
<path d="M60.535 30.1185V35.5471C60.535 36.2257 57.8207 38.2614 57.1421 38.2614H44.9278C43.7968 38.0352 41.535 37.99 41.535 39.6185V44.3685L38.8207 45.0471C38.1421 45.4994 36.785 46.54 36.785 47.0828C36.785 47.7614 36.1064 49.1185 36.785 49.7971C37.4636 50.4757 38.8206 51.1542 39.4991 51.8328C40.1777 52.5114 41.535 51.8328 41.535 52.5114V55.2257C41.535 55.7685 41.9873 57.2614 42.2134 57.94C42.6658 58.3923 43.7063 59.2971 44.2491 59.2971C44.792 59.2971 45.8325 59.7494 46.2849 59.9757V62.0114C46.2849 62.5542 47.1897 64.0471 47.642 64.7257C48.3206 65.178 49.9491 66.0828 51.0349 66.0828C52.392 66.0828 63.9277 67.44 65.9634 67.44C67.592 67.44 72.9754 66.5351 75.4634 66.0828L80.2134 62.69L86.9991 61.3328H91.0706L93.7849 59.9757V56.5828L94.4634 42.3328L93.1063 39.6185H88.3563C87.8134 39.6185 85.4158 37.8091 84.2849 36.9042C83.38 36.2257 81.5706 34.7328 81.5706 34.19C81.5706 33.6471 77.4991 31.7019 75.4634 30.7971L72.7491 30.1185H65.9634H62.5706H60.535Z" fill="#FFF6E0"/>
<path d="M36.1064 11.1185V27.4042L41.5352 25.3685L43.5707 24.0114L50.3564 27.4042L52.3922 25.3685L51.7136 12.4757L49.6779 11.1185H42.8922H36.1064Z" fill="#FFF6E0"/>
<path d="M60.5352 30.1185C60.5352 31.7019 60.5352 35.0042 60.5352 35.5471M60.5352 30.1185V35.5471M60.5352 30.1185H62.5707M60.5352 35.5471C60.5352 36.2257 57.8209 38.2614 57.1423 38.2614M62.5707 30.1185H65.9636H72.7493L75.4636 30.7971C77.4993 31.7019 81.5707 33.6471 81.5707 34.19C81.5707 34.7328 83.3802 36.2257 84.285 36.9042C85.4159 37.8091 87.8136 39.6185 88.3564 39.6185M62.5707 30.1185H59.8564M57.1423 38.2614C56.5994 38.2614 48.7732 38.2614 44.928 38.2614M57.1423 38.2614H44.928M44.928 38.2614C43.797 38.0352 41.5352 37.99 41.5352 39.6185M41.5352 39.6185C41.5352 41.2471 41.5352 43.4637 41.5352 44.3685M41.5352 39.6185V44.3685M41.5352 44.3685L38.8209 45.0471C38.1423 45.4994 36.7852 46.54 36.7852 47.0828C36.7852 47.7614 36.1066 49.1185 36.7852 49.7971C37.4637 50.4757 38.8207 51.1542 39.4993 51.8328C40.1779 52.5114 41.5352 51.8328 41.5352 52.5114M41.5352 52.5114C41.5352 53.19 41.5352 54.5471 41.5352 55.2257M41.5352 52.5114V55.2257M41.5352 55.2257C41.5352 55.7685 41.9875 57.2614 42.2136 57.94C42.6659 58.3923 43.7064 59.2971 44.2493 59.2971C44.7922 59.2971 45.8327 59.7494 46.285 59.9757M46.285 59.9757C46.285 60.428 46.285 61.4685 46.285 62.0114M46.285 59.9757V62.0114M46.285 62.0114C46.285 62.5542 47.1898 64.0471 47.6422 64.7257C48.3207 65.178 49.9493 66.0828 51.035 66.0828C52.3922 66.0828 63.9279 67.44 65.9636 67.44C67.5922 67.44 72.9755 66.5351 75.4636 66.0828L80.2136 62.69L86.9993 61.3328H91.0707L93.785 59.9757V56.5828L94.4636 42.3328L93.1064 39.6185M93.1064 39.6185C91.7493 39.6185 88.8993 39.6185 88.3564 39.6185M93.1064 39.6185H88.3564M36.1064 11.1185C36.1064 11.6614 36.1064 22.2019 36.1064 27.4042M36.1064 11.1185H42.8922H49.6779L51.7136 12.4757L52.3922 25.3685L50.3564 27.4042L43.5707 24.0114L41.5352 25.3685L36.1064 27.4042M36.1064 11.1185V27.4042" stroke="black" stroke-width="1.35714" stroke-linecap="round" stroke-linejoin="round"/>
<path d="M91.9365 37.6947H89.3007C87.093 37.5927 85.3175 35.7123 83.2633 33.5364C81.8905 32.0827 80.4208 30.526 78.6502 29.3723V13.6947C78.6502 10.9333 76.4036 8.68665 73.6424 8.68665H13.8229C11.0614 8.68665 8.81501 10.9333 8.81501 13.6947V26.4166C8.81501 27.4296 9.63608 28.2506 10.649 28.2506C11.6619 28.2506 12.483 27.4296 12.483 26.4166V13.6947C12.483 12.9684 13.0966 12.3546 13.8229 12.3546H34.1175V28.5811C34.1175 29.2477 34.4793 29.862 35.0623 30.1852C35.3392 30.3387 35.6455 30.415 35.9513 30.415C36.2892 30.415 36.6266 30.3218 36.9234 30.1362L43.7349 25.879L50.5412 30.1361C51.1068 30.4895 51.8193 30.5086 52.4026 30.1854C52.986 29.8622 53.3478 29.2481 53.3478 28.5812V12.3546H73.6427C74.3689 12.3546 74.9826 12.9683 74.9826 13.6947V27.8174C74.386 27.6926 73.7596 27.6175 73.0974 27.6057C73.0865 27.6056 73.0759 27.6056 73.065 27.6056H68.4189H64.8102H62.7318C62.7221 27.6056 62.7129 27.6056 62.7033 27.6057C60.4925 27.6401 59.3564 28.6423 58.7927 29.4769C57.9177 30.7725 57.8367 32.5271 58.5637 34.4155C58.7329 34.8564 58.9392 35.2734 59.177 35.6654H45.2701C42.2822 35.6654 39.8512 38.0963 39.8512 41.0842C39.8512 41.6986 39.9539 42.2895 40.1427 42.8405H39.6559C36.668 42.8405 34.2371 45.2714 34.2371 48.2595C34.2371 51.2476 36.668 53.6785 39.6559 53.6785H40.1413C39.9533 54.228 39.851 54.817 39.851 55.4296C39.851 58.3241 42.1278 60.6963 44.9826 60.8462C44.7929 61.3979 44.6898 61.9893 44.6898 62.6048C44.6898 65.593 47.1207 68.0239 50.1087 68.0239H72.8305C73.6131 68.0239 74.3254 67.9282 74.982 67.7641V73.5108C74.982 74.24 74.3683 74.8559 73.6421 74.8559H31.1616C31.5214 73.5746 31.7181 72.2257 31.7181 70.831C31.7181 62.6155 25.0345 55.9317 16.8192 55.9317C15.3112 55.9317 13.8553 56.1588 12.4824 56.5775V42.9053C12.4824 41.8925 11.6613 41.0714 10.6484 41.0714C9.63552 41.0714 8.81445 41.8925 8.81445 42.9053V58.2747C4.67389 60.9244 1.9209 65.5608 1.9209 70.8311C1.9209 79.0496 8.60446 85.7357 16.8198 85.7357C22.2232 85.7357 26.9635 82.8427 29.5758 78.5239H73.6427C76.4039 78.5239 78.6505 76.2752 78.6505 73.5109V65.9599C79.0553 65.6705 79.4425 65.3736 79.8179 65.0842C81.4375 63.8361 82.8362 62.7583 85.0633 62.7583H91.9367C94.0782 62.7583 95.8207 61.0183 95.8207 58.8794V41.5789C95.8205 39.4369 94.0782 37.6947 91.9365 37.6947ZM49.6798 25.2709L44.7078 22.161C44.113 21.7893 43.3583 21.7891 42.7632 22.1609L37.7854 25.272V12.3546H49.6798V25.2709ZM16.8198 82.0677C10.627 82.0677 5.58885 77.027 5.58885 70.8311C5.58885 64.6382 10.627 59.5998 16.8198 59.5998C23.0125 59.5998 28.0507 64.6382 28.0507 70.8311C28.0507 77.027 23.0125 82.0677 16.8198 82.0677ZM92.1526 58.8794C92.1526 58.992 92.0518 59.0903 91.9365 59.0903H85.0631C81.5864 59.0903 79.4575 60.7311 77.5789 62.1788C76.0004 63.3953 74.7536 64.3561 72.8307 64.3561H50.109C49.1436 64.3561 48.3581 63.5705 48.3581 62.6051C48.3581 61.6395 49.1436 60.854 50.109 60.854H56.1967C57.2097 60.854 58.0308 60.0329 58.0308 59.0199C58.0308 58.0071 57.2097 57.186 56.1967 57.186H45.2702C44.3046 57.186 43.5194 56.3983 43.5194 55.4297C43.5194 54.4641 44.3049 53.6787 45.2702 53.6787H56.1967C57.2097 53.6787 58.0308 52.8577 58.0308 51.8447C58.0308 50.8319 57.2097 50.0108 56.1967 50.0108H39.6561C38.6907 50.0108 37.9051 49.2253 37.9051 48.2597C37.9051 47.2941 38.6907 46.5085 39.6561 46.5085H56.1967C57.2097 46.5085 58.0308 45.6875 58.0308 44.6746C58.0308 43.6617 57.2097 42.8406 56.1967 42.8406H45.2702C44.3046 42.8406 43.5194 42.0528 43.5194 41.0845C43.5194 40.1188 44.3049 39.3335 45.2702 39.3335H65.7339H69.7143H72.3732C73.386 39.3335 74.2071 38.5124 74.2071 37.4996C74.2071 36.4866 73.386 35.6655 72.3732 35.6655H69.7143H65.7339C64.0565 35.6655 62.5861 34.6589 61.9875 33.0996C61.6387 32.1933 61.7337 31.6765 61.8327 31.5298C61.9321 31.3826 62.2903 31.2824 62.7474 31.2737H68.4189H73.0482C76.1409 31.3356 78.3052 33.628 80.5966 36.0547C82.9936 38.5936 85.4722 41.2187 89.1921 41.3613C89.2155 41.3623 89.2389 41.3627 89.2624 41.3627H91.9369C92.0539 41.3627 92.153 41.4616 92.153 41.5786L92.1526 58.8794Z" fill="#E7C647"/>
<path d="M10.6484 36.4976C11.6613 36.4976 12.4824 35.6713 12.4824 34.6584C12.4824 33.6455 11.6613 32.8245 10.6484 32.8245C9.63554 32.8245 8.81445 33.6455 8.81445 34.6584V34.669C8.81445 35.6817 9.63554 36.4976 10.6484 36.4976Z" fill="#E7C647"/>
</g>
</g>
</g>
</g>
<defs>
<clipPath id="clip0_182_4881">
<rect width="95" height="95" fill="white" transform="translate(0.820312 0.261353)"/>
</clipPath>
<clipPath id="clip1_182_4881">
<rect width="95" height="95" fill="white" transform="translate(0.820312 0.261353)"/>
</clipPath>
<clipPath id="clip2_182_4881">
<rect width="95" height="95" fill="white" transform="translate(0.820312 0.261353)"/>
</clipPath>
</defs>
</svg>
