<svg width="96" height="96" viewBox="0 0 96 96" fill="none" xmlns="http://www.w3.org/2000/svg">
<g clip-path="url(#clip0_182_4894)">
<g clip-path="url(#clip1_182_4894)">
<g clip-path="url(#clip2_182_4894)">
<mask id="mask0_182_4894" style="mask-type:luminance" maskUnits="userSpaceOnUse" x="0" y="0" width="95" height="95">
<path d="M94.8059 0.261353H0.90625V94.161H94.8059V0.261353Z" fill="white"/>
</mask>
<g mask="url(#mask0_182_4894)">
<path d="M69.8288 88.8428C68.8778 88.8428 68.096 89.5663 68.0037 90.493H54.2025L52.0252 77.382L54.4453 74.9621C54.7892 74.6182 54.9824 74.1516 54.9824 73.6653C54.9824 73.1789 54.7892 72.7125 54.4453 72.3684L52.304 70.2271H55.963C59.9786 70.2271 63.7154 72.2202 65.9582 75.5588C66.523 76.3996 67.6626 76.6231 68.5031 76.0585C69.3439 75.4935 69.5675 74.3541 69.0027 73.5132C66.1003 69.1931 61.2789 66.6017 56.0863 66.561C57.863 64.5935 58.9466 61.9889 58.9466 59.1356V56.4458C58.9466 50.3298 53.9711 45.3542 47.8551 45.3542C41.7392 45.3542 36.7636 50.3298 36.7636 56.4458V59.1356C36.7636 61.9897 37.8477 64.5946 39.6247 66.5623C31.0245 66.6287 24.0479 73.6431 24.0479 82.2588V92.3269C24.0479 93.3397 24.8689 94.1609 25.8819 94.1609H69.8284C70.8413 94.1609 71.6624 93.3397 71.6624 92.3269V90.6767C71.6627 89.664 70.8416 88.8428 69.8288 88.8428ZM47.8766 76.3437L45.1981 73.6653L47.8766 70.987L50.5552 73.6653L47.8766 76.3437ZM46.9272 80.5044C47.2184 80.6808 47.5471 80.7712 47.8764 80.7712C48.2058 80.7712 48.5346 80.6809 48.8255 80.5044L50.4843 90.493H45.2684L46.9272 80.5044ZM40.432 56.4458C40.432 52.3525 43.762 49.0222 47.8555 49.0222C51.9489 49.0222 55.2791 52.3522 55.2791 56.4458V59.1356C55.2791 63.2289 51.9489 66.5592 47.8555 66.5592C43.762 66.5592 40.432 63.229 40.432 59.1356V56.4458ZM27.7162 82.2588C27.7162 75.6244 33.1136 70.2271 39.7478 70.2271H43.4488L41.3075 72.3684C40.9636 72.7125 40.7703 73.1789 40.7703 73.6653C40.7703 74.1516 40.9636 74.6182 41.3075 74.9621L43.7275 77.382L41.5502 90.493H27.7161L27.7162 82.2588Z" fill="#E7C647"/>
<path d="M38.1357 2.297C38.6786 2.297 51.0286 2.74937 57.1357 2.97557V22.6541L38.1357 21.9756V2.297Z" fill="#FFF6E0"/>
<path d="M81.5645 2.97571L72.0645 20.6186H92.4216L82.9216 3.65428L81.5645 2.97571Z" fill="#FFF6E0"/>
<path d="M38.1357 2.297C38.6786 2.297 51.0286 2.74937 57.1357 2.97557V22.6541L38.1357 21.9756V2.297Z" stroke="black" stroke-width="1.35714" stroke-linecap="round" stroke-linejoin="round"/>
<path d="M81.5645 2.97571L72.0645 20.6186H92.4216L82.9216 3.65428L81.5645 2.97571Z" stroke="black" stroke-width="1.35714" stroke-linecap="round" stroke-linejoin="round"/>
<path d="M24.3601 11.9896C24.3601 5.52339 19.0993 0.262817 12.6332 0.262817C6.16719 0.262817 0.90625 5.52358 0.90625 11.9896C0.90625 18.4557 6.16701 23.7165 12.6331 23.7165C19.0991 23.7165 24.3601 18.4558 24.3601 11.9896ZM4.5742 11.9896C4.5742 7.54609 8.18933 3.93077 12.6331 3.93077C17.0768 3.93077 20.6919 7.54609 20.6919 11.9896C20.6919 16.4331 17.0768 20.0486 12.6331 20.0486C8.18933 20.0486 4.5742 16.4334 4.5742 11.9896Z" fill="#E7C647"/>
<path d="M37.9628 23.7153H57.7487C58.7616 23.7153 59.5826 22.894 59.5826 21.8813V2.09545C59.5826 1.08273 58.7616 0.261475 57.7487 0.261475H37.9628C36.95 0.261475 36.1289 1.08273 36.1289 2.09545V21.8813C36.1289 22.894 36.95 23.7153 37.9628 23.7153ZM39.7969 3.92944H55.9147V20.0474H39.7969V3.92944Z" fill="#E7C647"/>
<path d="M94.5604 20.2357L83.9781 1.90698C83.6506 1.33955 83.0452 0.98999 82.3899 0.98999C81.7346 0.98999 81.1291 1.33955 80.8017 1.90698L70.2193 20.2357C69.8917 20.8032 69.8917 21.5023 70.2193 22.0697C70.547 22.6371 71.1524 22.9867 71.8076 22.9867H92.9721C93.6273 22.9867 94.2328 22.6371 94.5604 22.0697C94.888 21.5023 94.888 20.8032 94.5604 20.2357ZM74.9841 19.3188L82.3897 6.49192L89.7953 19.3188H74.9841Z" fill="#E7C647"/>
<path d="M47.8556 41.7539C48.8686 41.7539 49.6897 40.9325 49.6897 39.9198V34.687L49.7639 34.7906C50.122 35.291 50.6851 35.5576 51.2569 35.5576C51.6263 35.5576 51.9994 35.4463 52.3228 35.2147C53.1464 34.6253 53.3363 33.4798 52.7469 32.6561L49.3472 27.9056C49.0028 27.4243 48.4475 27.1388 47.8559 27.1388C47.2642 27.1388 46.7088 27.4243 46.3644 27.9056L42.9647 32.6561C42.3753 33.4798 42.5652 34.6253 43.3888 35.2147C44.2125 35.8042 45.3579 35.6146 45.9476 34.7908L46.0217 34.687V39.9198C46.0217 40.9328 46.8428 41.7539 47.8556 41.7539Z" fill="#E7C647"/>
<path d="M32.7563 56.6073C32.7563 55.5944 31.9353 54.7732 30.9224 54.7732H14.4777V34.687L14.552 34.7906C14.9102 35.291 15.4731 35.5576 16.045 35.5576C16.4143 35.5576 16.7874 35.4463 17.1109 35.2147C17.9346 34.6253 18.1243 33.4798 17.5349 32.6561L14.1353 27.9056C13.7908 27.4243 13.2355 27.1388 12.6439 27.1388C12.0523 27.1388 11.4969 27.4243 11.1525 27.9056L7.75287 32.6561C7.16342 33.4798 7.35325 34.6253 8.17688 35.2147C9.00034 35.8042 10.146 35.6146 10.7357 34.7908L10.8097 34.687V56.6073C10.8097 57.62 11.6308 58.4412 12.6437 58.4412H30.9224C31.9351 58.4412 32.7563 57.6201 32.7563 56.6073Z" fill="#E7C647"/>
<path d="M84.5601 27.9055C84.2157 27.4242 83.6604 27.1387 83.0688 27.1387C82.4772 27.1387 81.9219 27.4242 81.5774 27.9055L78.1778 32.656C77.5884 33.4796 77.7781 34.6252 78.6017 35.2146C79.4254 35.804 80.5711 35.6144 81.1605 34.7907L81.2347 34.687V54.7732H64.7901C63.7771 54.7732 62.9561 55.5946 62.9561 56.6073C62.9561 57.62 63.7771 58.4412 64.7901 58.4412H83.0688C84.0816 58.4412 84.9027 57.62 84.9027 56.6073V34.687L84.9771 34.7907C85.3352 35.291 85.8983 35.5576 86.47 35.5576C86.8395 35.5576 87.2124 35.4463 87.536 35.2148C88.3596 34.6254 88.5495 33.4799 87.9601 32.6563L84.5601 27.9055Z" fill="#E7C647"/>
<path d="M69.8292 84.258C70.842 84.258 71.6631 83.437 71.6631 82.4241C71.6631 81.4113 70.842 80.5901 69.8292 80.5901C68.8162 80.5901 67.9951 81.4113 67.9951 82.4241C67.9951 83.437 68.8162 84.258 69.8292 84.258Z" fill="#E7C647"/>
</g>
</g>
</g>
</g>
<defs>
<clipPath id="clip0_182_4894">
<rect width="95" height="95" fill="white" transform="translate(0.135742 0.261353)"/>
</clipPath>
<clipPath id="clip1_182_4894">
<rect width="95" height="95" fill="white" transform="translate(0.135742 0.261353)"/>
</clipPath>
<clipPath id="clip2_182_4894">
<rect width="95" height="95" fill="white" transform="translate(0.135742 0.261353)"/>
</clipPath>
</defs>
</svg>
