<svg width="96" height="96" viewBox="0 0 96 96" fill="none" xmlns="http://www.w3.org/2000/svg">
<g clip-path="url(#clip0_180_5281)">
<g clip-path="url(#clip1_180_5281)">
<g clip-path="url(#clip2_180_5281)">
<mask id="mask0_180_5281" style="mask-type:luminance" maskUnits="userSpaceOnUse" x="1" y="0" width="95" height="95">
<path d="M95.134 0.945679H1.23438V94.8453H95.134V0.945679Z" fill="white"/>
</mask>
<g mask="url(#mask0_180_5281)">
<path d="M61.3701 45.7315L66.1201 38.2672L72.9058 34.8743C73.8106 34.6481 75.7558 34.3315 76.2987 34.8743C76.8415 35.4172 84.6678 45.9577 88.513 51.1601L91.9058 57.2672C91.2273 58.6243 89.7344 61.4743 89.1915 62.0172C88.6487 62.5601 83.5367 64.9577 81.0487 66.0886C79.6915 66.3149 76.8415 66.7672 76.2987 66.7672C75.7558 66.7672 69.2867 58.172 66.1201 53.8743L62.5576 47.7672L61.3701 45.7315Z" fill="#FFF6E0"/>
<path d="M76.2988 66.7672C75.756 66.7672 69.2869 58.172 66.1203 53.8744L62.5578 47.7672H60.0131H53.2274C52.5488 47.7672 49.156 49.1244 47.7988 49.8029L43.7274 51.8386C42.3703 52.5172 41.0131 53.8744 40.3345 54.5529C39.656 55.2315 38.2988 57.2672 38.2988 57.9458C38.2988 58.6244 38.2988 59.9815 38.9774 60.6601C39.656 61.3386 41.0131 62.0172 41.6917 62.0172H45.7631C46.8488 62.0172 49.8345 60.6601 51.1917 59.9815C51.644 60.2077 52.6845 60.7958 53.2274 61.3386C53.7703 61.8815 58.4297 65.1838 60.6917 66.7672L66.1203 72.1958C67.0251 72.6481 68.9703 73.4172 69.5131 72.8744C70.056 72.3315 72.0012 70.8386 72.906 70.1601L74.9417 68.8029L76.2988 66.7672Z" fill="#FFF6E0"/>
<path d="M22.0127 74.2313C22.0127 75.3171 23.8222 77.398 24.727 78.3028L29.477 82.3742L32.1913 84.4099L34.9056 87.1242C35.8104 87.5765 37.6198 88.6171 37.6198 89.1599C37.6198 89.7028 40.3341 90.2908 41.6913 90.5171C42.3698 90.0647 43.8627 89.0242 44.4056 88.4813C45.0841 87.8028 45.0841 87.8028 45.0841 86.4456C45.0841 85.0885 45.0841 83.7313 44.4056 82.3742C43.727 81.0171 43.727 78.3028 43.0484 77.6242C42.3698 76.9456 39.6556 75.5885 39.6556 74.9099C39.6556 74.2313 37.6198 71.5171 36.9413 70.8385C36.2627 70.1599 34.9056 67.4456 34.227 66.7671C33.5484 66.0885 31.5127 64.7313 30.1556 65.4099C28.7984 66.0885 24.727 69.4813 24.0484 70.1599C23.5056 70.7028 22.465 73.1004 22.0127 74.2313Z" fill="#FFF6E0"/>
<path d="M34.906 7.73132C38.9774 13.3861 50.6488 24.4242 64.7631 23.3385L62.0488 31.4813L57.9774 34.8742L45.0845 38.9456L34.906 35.5528L28.7988 24.6956L29.4774 15.8742L32.8703 9.76704L34.906 7.73132Z" fill="#FFF6E0"/>
<path d="M46.666 25.34C45.9496 25.34 45.0711 25.2353 44.4696 24.565C44.2605 24.3295 44.0773 24.1095 43.8996 23.9262C42.4667 22.4183 39.9985 24.5127 41.4941 26.4707L41.8549 26.9366C42.0901 27.2301 42.5138 27.5702 43.1203 27.9578C43.7114 28.3344 44.3701 28.6068 45.1023 28.7691V31.3559C45.1023 32.2459 45.8289 32.9789 46.7183 32.9789C47.6125 32.9789 48.3706 32.2459 48.3706 31.3559V28.7535C49.5421 28.4816 50.5461 27.9106 51.367 27.0469C52.193 26.1827 52.6062 25.0363 52.6062 23.6068C52.6062 22.6331 52.4183 21.8217 52.0415 21.167C51.665 20.5177 51.2048 20.0624 50.6557 19.8056C50.1015 19.549 49.5001 19.3238 48.8359 19.1303C48.1772 18.9366 47.5758 18.8004 47.0214 18.7168C46.4725 18.6379 46.0123 18.4703 45.6357 18.2245C45.2591 17.9729 45.071 17.6484 45.071 17.2452C45.071 15.3186 47.8948 15.5541 49.1391 16.6013C50.9747 18.1458 53.0296 15.3186 50.9014 13.7217L50.6556 13.5017C50.4881 13.3711 50.1954 13.2086 49.7718 13.0043C49.3534 12.8003 48.8826 12.6483 48.3704 12.5383V10.973V10.2924C48.3704 9.40217 47.6434 8.66931 46.7493 8.66931C45.8603 8.66931 45.1284 9.40199 45.1284 10.2924V12.5122C43.9358 12.7479 42.9476 13.3397 42.2628 14.2138C41.5725 15.1041 41.2221 16.0885 41.2221 17.1876C41.2221 18.2925 41.4786 19.1983 41.9908 19.9157C42.5032 20.6325 43.1256 21.1353 43.863 21.4286C44.595 21.7219 45.3269 21.9576 46.0591 22.1301C46.7963 22.3085 47.4188 22.5019 47.931 22.7271C48.4436 22.947 48.6998 23.256 48.6998 23.6591C48.7 24.7795 48.0203 25.34 46.666 25.34Z" fill="#E7C647"/>
<path d="M93.1952 53.9197L78.1257 34.6175C77.1107 33.3139 75.5717 32.5662 73.9038 32.5662C72.7265 32.5662 71.612 32.9399 70.6766 33.6496L60.8145 41.1673C59.6857 42.0276 58.9645 43.2762 58.7837 44.6829C58.7567 44.8926 58.744 45.1016 58.7418 45.3096C54.9821 45.0247 51.0988 45.3111 47.3275 47.7624L47.1584 47.8722L37.6184 46.4132C37.6379 46.0829 37.6273 45.7486 37.5838 45.4131C37.4019 44.0099 36.682 42.7641 35.5553 41.9052L25.6907 34.3942C23.3795 32.6268 20.0378 33.0562 18.2407 35.3539L14.6483 39.9562C14.0196 40.7613 14.163 41.9235 14.9682 42.5519C15.7734 43.1805 16.9357 43.0371 17.5642 42.232L21.1554 37.6313C21.6991 36.9362 22.747 36.7994 23.4468 37.3348L33.3137 44.8474C33.6478 45.1021 33.8616 45.4719 33.9156 45.889C33.9696 46.3066 33.8568 46.7199 33.5994 47.0505L18.5271 66.3559C17.9871 67.0494 16.9378 67.1848 16.239 66.655L6.37653 59.1364C6.04054 58.8805 5.82579 58.5093 5.77204 58.0917C5.71868 57.676 5.83147 57.2655 6.09097 56.9339L8.65341 53.6513C9.28191 52.8461 9.13868 51.684 8.33338 51.0556C7.52827 50.4267 6.36608 50.5703 5.73738 51.3755L3.17643 54.6562C2.304 55.7715 1.9229 57.1589 2.10336 58.563C2.28401 59.9695 3.00549 61.218 4.13412 62.0782L13.9998 69.5993C14.9599 70.3276 16.0946 70.6799 17.2219 70.6798C17.8739 70.6798 18.5226 70.5599 19.1342 70.3289L20.411 72.0776C19.717 73.3436 19.6088 74.8644 20.1666 76.332C20.9638 78.4305 22.8449 79.8532 24.8801 79.9209C24.9432 80.2199 25.0306 80.5186 25.15 80.8145C25.9704 82.8471 27.8436 84.2305 29.8563 84.3216C29.8656 84.3744 29.8725 84.4273 29.8834 84.4803C30.2663 86.3413 31.6941 87.9307 33.5205 88.5294C33.9857 88.682 34.4549 88.7603 34.9194 88.7741C35.0974 89.5234 35.4692 90.2472 36.041 90.8825C36.9321 91.873 38.233 92.5068 39.6602 92.5065C40.6967 92.5065 41.7998 92.1702 42.8601 91.3952L44.9543 93.3529C46.021 94.3483 47.3639 94.8453 48.6939 94.8453C50.043 94.8452 51.3785 94.3338 52.3984 93.313C53.0065 92.7043 53.4777 91.9801 53.7825 91.2177C54.3022 91.3756 54.8099 91.4504 55.2969 91.4504C56.6686 91.4503 57.879 90.8711 58.7463 89.9778C59.4559 89.247 59.9639 88.274 60.1885 87.2369C60.2635 87.2407 60.3386 87.2438 60.4139 87.2445C60.4325 87.2448 60.4506 87.2448 60.4692 87.2448C61.9279 87.2448 63.3276 86.6797 64.3161 85.6898C65.0087 84.9965 65.485 84.1432 65.7125 83.2115C66.0653 83.2803 66.4197 83.3162 66.7732 83.3162C67.2184 83.3162 67.6624 83.261 68.0998 83.1489C69.8832 82.692 71.2605 81.298 71.6938 79.5112C72.0938 77.8624 71.6817 76.1256 70.5599 74.5468C73.4645 72.2099 74.6394 71.0588 75.9662 68.9064C76.8725 69.5731 77.9759 69.9404 79.1419 69.9404C80.3227 69.9404 81.4393 69.5639 82.3677 68.854L92.2362 61.3402C93.362 60.482 94.0821 59.2366 94.2641 57.833C94.4459 56.4283 94.067 55.039 93.1952 53.9197ZM25.8476 75.8427C25.5644 76.0987 25.2896 76.2286 25.0309 76.2286C24.4997 76.2286 23.8821 75.6973 23.6242 75.0185C23.3901 74.4021 23.4992 73.8871 23.9497 73.4871L23.9556 73.482L23.9612 73.4771L30.192 67.9389C30.7133 67.4765 31.2378 67.2321 31.7093 67.2321C32.3992 67.2321 32.9151 67.7559 33.1024 68.2431C33.3027 68.7633 33.1822 69.2276 32.7464 69.6217L31.6603 70.6012L31.6574 70.6038C31.652 70.6084 31.647 70.6131 31.6415 70.6179C31.6027 70.6532 31.5625 70.6894 31.5229 70.7252L25.8476 75.8427ZM30.884 80.2632C30.6032 80.5113 30.3356 80.6315 30.0664 80.6315C29.505 80.6315 28.8523 80.104 28.5804 79.4299C28.2806 78.6876 28.6363 78.3448 28.7486 78.2362C28.821 78.167 28.9077 78.0838 28.9981 77.987L28.9997 77.9855L29.0189 77.9687C29.3746 77.6509 32.5075 74.8201 34.0045 73.4676L34.116 73.367C34.6233 72.9218 35.1371 72.6864 35.6028 72.6864C36.3371 72.6864 36.8838 73.2484 37.081 73.7704C37.2771 74.2893 37.1594 74.7436 36.7329 75.1192L36.3492 75.4566C36.3463 75.4592 36.3435 75.4612 36.3408 75.4638L36.3381 75.4665L30.884 80.2632ZM36.3966 84.2551C36.371 84.2781 36.347 84.3021 36.3223 84.3254L35.8883 84.717C35.5026 85.0655 35.1164 85.1605 34.6726 85.0148C34.1115 84.8308 33.6216 84.2926 33.5068 83.7351C33.4069 83.2503 33.601 82.8011 34.0936 82.3668L34.7107 81.8276C34.7263 81.814 34.7398 81.7991 34.7548 81.7851L38.7972 78.2301C39.7659 77.3737 40.7253 77.2879 41.3638 78.0018C41.4537 78.1024 42.2152 79.0076 41.2855 79.8474L38.8029 82.0876C38.7763 82.1111 38.7493 82.1321 38.723 82.1562C38.7136 82.1648 38.7059 82.1748 38.6966 82.1832L36.4249 84.233C36.4158 84.2409 36.4055 84.247 36.3966 84.2551ZM38.791 88.4084C38.5961 88.192 38.22 87.631 38.8368 87.0386L41.3135 84.8039C41.5009 84.6437 41.6815 84.5165 41.8506 84.4292C41.8582 84.4252 41.8662 84.4211 41.8738 84.4172C42.8722 83.8839 43.4131 84.5055 43.5555 84.7085C43.7383 84.9697 43.9613 85.4827 43.4006 85.9863L41.7039 87.5114C41.6974 87.5171 41.6912 87.523 41.6848 87.5287L40.9492 88.1897C39.7404 89.2748 38.9916 88.6318 38.791 88.4084ZM68.099 78.6394C67.9853 79.1079 67.651 79.4455 67.1817 79.5659C66.4037 79.765 65.4189 79.333 64.5172 78.4079C64.4497 78.3331 64.3803 78.2594 64.3078 78.188L57.3267 71.2871C56.5999 70.5693 55.429 70.5759 54.7111 71.3024C53.993 72.0288 53.9996 73.1998 54.726 73.9178L61.696 80.8074C61.7077 80.8198 61.7195 80.8319 61.7309 80.8442C62.0094 81.1306 62.1642 81.5131 62.166 81.9273C62.1676 82.3647 62.0018 82.7726 61.6989 83.0759C61.4 83.3753 60.9531 83.546 60.4701 83.546C60.4633 83.546 60.4567 83.546 60.4499 83.5457C60.0222 83.5418 59.6319 83.3985 59.3572 83.1485C59.2415 82.9989 59.1155 82.8539 58.977 82.7148L53.8733 77.6048C53.1514 76.8824 51.9804 76.8816 51.2577 77.6032C50.535 78.325 50.5343 79.4959 51.2559 80.2186L56.096 85.0647C56.1544 85.15 56.2191 85.2323 56.2935 85.3092L56.4995 85.5216C56.7648 86.0269 56.6003 86.8781 56.0924 87.4015C55.3085 88.2087 54.2053 87.4971 53.4193 86.7589L51.2337 84.7013C50.4899 84.0012 49.3193 84.0366 48.6193 84.7802C47.9191 85.5241 47.9544 86.6946 48.6981 87.3947L50.3678 88.9663C50.3719 88.9701 50.3751 88.9743 50.3792 88.978C50.4173 89.0137 50.4747 89.0675 50.4776 89.254C50.4848 89.6875 50.1986 90.2818 49.7817 90.6991C49.1731 91.3081 48.1614 91.2863 47.4793 90.6497L45.649 88.939L45.8727 88.7378C47.6876 87.1081 47.9804 84.5789 46.585 82.5868C46.1309 81.9385 45.5622 81.4348 44.9242 81.0854C45.8235 79.3117 45.5721 77.1582 44.1205 75.5357C43.3017 74.6202 42.145 73.995 40.8538 73.8566C40.8169 73.3925 40.7154 72.9249 40.5413 72.4639C39.9131 70.8004 38.5164 69.576 36.8728 69.152C36.9412 68.4151 36.8394 67.6544 36.5548 66.9144C35.7763 64.8921 33.8294 63.533 31.7094 63.533C30.3193 63.533 28.946 64.0996 27.7364 65.1726L23.0143 69.3698L21.9764 67.9484L36.0551 49.916L42.4919 50.9005L41.5181 51.5322C36.3022 54.9163 35.9205 58.8518 37.3026 61.4068C38.4087 63.4519 40.6162 64.6208 42.9594 64.6208C43.9241 64.6207 44.9122 64.4225 45.8554 64.0057C45.8804 63.9945 45.9051 63.9831 45.9294 63.971L50.8056 61.5532L53.6205 64.1163C53.6233 64.1188 53.6262 64.1207 53.6287 64.1231C53.6315 64.1256 53.6338 64.1281 53.6365 64.1307L66.6471 75.7017C67.7619 76.693 68.3047 77.7912 68.099 78.6394ZM67.9435 71.9049L56.1027 61.3741L52.3613 57.9677C51.798 57.4544 50.9772 57.3393 50.2947 57.6781L44.3261 60.6376C42.7046 61.335 41.1095 60.6714 40.5557 59.6474C39.7946 58.2405 40.9346 56.3198 43.5311 54.6355L49.3421 50.8647C52.4928 48.8165 55.798 48.6585 60.3193 49.1832L73.4111 65.958C72.0296 68.439 71.2959 69.2265 67.9435 71.9049ZM90.5957 57.3575C90.5418 57.774 90.3279 58.1437 89.9945 58.3979L80.1237 65.9133C79.7692 66.1846 79.3944 66.2415 79.1423 66.2415C78.6235 66.2414 78.1472 66.013 77.8369 65.6161L62.7699 46.3106C62.5117 45.9803 62.3989 45.5698 62.4523 45.1542C62.5061 44.7365 62.7206 44.365 63.0568 44.1089L72.9159 36.5933C73.2737 36.3222 73.6503 36.2652 73.9035 36.2652C74.4229 36.2652 74.898 36.4928 75.2087 36.8916L90.2781 56.194C90.5371 56.5268 90.65 56.9398 90.5957 57.3575Z" fill="#E7C647"/>
<path d="M37.3323 38.5171C40.2361 40.0839 43.5161 40.912 46.8181 40.912C57.8258 40.912 66.7816 31.9464 66.7816 20.9261C66.7816 13.2348 62.2914 6.14207 55.3438 2.85686C52.6673 1.58867 49.7989 0.945679 46.8181 0.945679C35.8127 0.945679 26.8594 9.90887 26.8594 20.9261C26.8594 28.2742 30.8712 35.014 37.3323 38.5171ZM46.8181 4.64445C49.2467 4.64445 51.5823 5.16768 53.7612 6.19984C59.4236 8.87727 63.0826 14.6578 63.0826 20.9261C63.0826 29.907 55.7863 37.2133 46.8182 37.2133C44.1274 37.2133 41.4548 36.5384 39.0923 35.2638C33.8283 32.4095 30.5583 26.9157 30.5583 20.9261C30.5583 11.9484 37.8522 4.64445 46.8181 4.64445Z" fill="#E7C647"/>
<path d="M10.4967 48.2466C10.8373 48.5184 11.2446 48.6505 11.6492 48.6505C12.1924 48.6505 12.7307 48.4122 13.0958 47.9544L13.1167 47.9282C13.7538 47.13 13.6231 45.9662 12.8247 45.3292C12.0264 44.6924 10.8626 44.8225 10.2256 45.6212L10.2047 45.6475C9.5676 46.4458 9.69836 47.6094 10.4967 48.2466Z" fill="#E7C647"/>
</g>
</g>
</g>
</g>
<defs>
<clipPath id="clip0_180_5281">
<rect width="95" height="95" fill="white" transform="translate(0.977539 0.945679)"/>
</clipPath>
<clipPath id="clip1_180_5281">
<rect width="95" height="95" fill="white" transform="translate(0.977539 0.945679)"/>
</clipPath>
<clipPath id="clip2_180_5281">
<rect width="95" height="95" fill="white" transform="translate(0.977539 0.945679)"/>
</clipPath>
</defs>
</svg>
