<svg width="96" height="96" viewBox="0 0 96 96" fill="none" xmlns="http://www.w3.org/2000/svg">
<g clip-path="url(#clip0_182_4845)">
<g clip-path="url(#clip1_182_4845)">
<g clip-path="url(#clip2_182_4845)">
<mask id="mask0_182_4845" style="mask-type:luminance" maskUnits="userSpaceOnUse" x="1" y="0" width="95" height="95">
<path d="M95.2336 0.945679H1.33398V94.8453H95.2336V0.945679Z" fill="white"/>
</mask>
<g mask="url(#mask0_182_4845)">
<path d="M64.6053 91.8744C78.0969 91.8744 89.0339 80.9373 89.0339 67.4458C89.0339 53.9543 78.0969 43.0172 64.6053 43.0172C51.1138 43.0172 40.1768 53.9543 40.1768 67.4458C40.1768 80.9373 51.1138 91.8744 64.6053 91.8744Z" fill="#FFF6E0"/>
<path d="M69.5475 41.594V23.8238C69.5475 23.3152 69.3125 22.8452 68.9802 22.4734L49.0572 1.55247C48.6853 1.16131 48.1566 0.945679 47.6287 0.945679H16.0413C10.2098 0.945679 5.55176 5.70112 5.55176 11.5333V71.2629C5.55176 77.0951 10.2098 81.7725 16.0413 81.7725H40.9747C45.6908 89.6006 54.2632 94.8453 64.0284 94.8453C78.8629 94.8453 90.9772 82.7898 90.9772 67.936C90.9972 54.9606 81.6811 44.1187 69.5475 41.594ZM49.5858 7.81521L62.9524 21.886H54.2826C51.6993 21.886 49.5858 19.7532 49.5858 17.1699V7.81521ZM16.0413 77.8581C12.3819 77.8581 9.46615 74.9223 9.46615 71.2629V11.5333C9.46615 7.8539 12.3819 4.86007 16.0413 4.86007H45.6714V17.1699C45.6714 21.9253 49.527 25.8004 54.2826 25.8004H65.6332V41.0847C65.0464 41.0654 64.5764 41.0066 64.0679 41.0066C57.2376 41.0066 50.9556 43.6293 46.2195 47.7393H21.3648C20.2881 47.7393 19.4075 48.6198 19.4075 49.6957C19.4075 50.7725 20.2881 51.653 21.3648 51.653H42.5794C41.1897 53.6101 40.0348 55.5674 39.135 57.7201H21.3648C20.2881 57.7201 19.4075 58.6006 19.4075 59.6774C19.4075 60.7533 20.2881 61.6345 21.3648 61.6345H37.8627C37.3734 63.5918 37.1191 65.7639 37.1191 67.936C37.1191 71.4585 37.804 74.9424 39.0369 77.8782H16.0413V77.8581ZM64.0485 90.951C51.3668 90.951 41.0529 80.637 41.0529 67.9553C41.0529 55.2737 51.3467 44.9597 64.0485 44.9597C76.7494 44.9597 87.0433 55.2737 87.0433 67.9553C87.0433 80.637 76.7301 90.951 64.0485 90.951Z" fill="#E7C647"/>
<path d="M21.3653 41.8484H41.1902C42.267 41.8484 43.1475 40.9672 43.1475 39.8912C43.1475 38.8145 42.267 37.934 41.1902 37.934H21.3653C20.2886 37.934 19.4082 38.8145 19.4082 39.8912C19.4082 40.9672 20.2886 41.8484 21.3653 41.8484Z" fill="#E7C647"/>
<path d="M63.4023 55.8804C63.5592 55.9191 63.7154 55.9392 63.8723 55.9392C64.0679 55.9392 64.2442 55.9191 64.4203 55.8603C67.0037 56.076 69.0197 58.2288 69.0197 60.8515C69.0197 61.9276 69.9001 62.8079 70.9762 62.8079C72.0529 62.8079 72.9333 61.9276 72.9333 60.8515C72.9333 56.546 69.8808 52.9446 65.8295 52.1029V50.8506C65.8295 49.7738 64.9484 48.8934 63.8723 48.8934C62.7956 48.8934 61.9151 49.7738 61.9151 50.8506V52.1817C58.0008 53.1209 55.085 56.6635 55.085 60.8515C55.085 65.7832 59.0968 69.7757 64.0091 69.7757C66.7687 69.7757 69.0197 72.0259 69.0197 74.7854C69.0197 77.545 66.788 79.8153 64.0091 79.8153C61.2496 79.8153 58.9994 77.5643 58.9994 74.8048C58.9994 73.7287 58.1182 72.8475 57.0422 72.8475C55.9655 72.8475 55.085 73.7287 55.085 74.8048C55.085 79.0129 58.0008 82.5354 61.9151 83.4747V85.4906C61.9151 86.5673 62.7956 87.4478 63.8723 87.4478C64.9484 87.4478 65.8295 86.5673 65.8295 85.4906V83.5334C69.8808 82.6916 72.9333 79.0909 72.9333 74.7854C72.9333 69.8538 68.9214 65.8612 64.0091 65.8612C61.2496 65.8612 58.9994 63.6104 58.9994 60.8515C58.9994 58.3069 60.9171 56.1742 63.4023 55.8804Z" fill="#E7C647"/>
</g>
</g>
</g>
</g>
<defs>
<clipPath id="clip0_182_4845">
<rect width="95" height="95" fill="white" transform="translate(0.820312 0.945679)"/>
</clipPath>
<clipPath id="clip1_182_4845">
<rect width="95" height="95" fill="white" transform="translate(0.820312 0.945679)"/>
</clipPath>
<clipPath id="clip2_182_4845">
<rect width="95" height="95" fill="white" transform="translate(0.820312 0.945679)"/>
</clipPath>
</defs>
</svg>
