<svg width="97" height="97" viewBox="0 0 97 97" fill="none" xmlns="http://www.w3.org/2000/svg">
<g clip-path="url(#clip0_165_4483)">
<g clip-path="url(#clip1_165_4483)">
<g clip-path="url(#clip2_165_4483)">
<mask id="mask0_165_4483" style="mask-type:luminance" maskUnits="userSpaceOnUse" x="0" y="0" width="96" height="96">
<path d="M95.3195 0.945679H0.84375V95.4215H95.3195V0.945679Z" fill="white"/>
</mask>
<g mask="url(#mask0_165_4483)">
<path d="M60.9241 7.77307H47.2694L30.8838 24.1587L39.0766 28.9379L47.2694 20.745L64.3378 37.8134L70.4824 45.3235L79.358 46.689L83.4544 39.1789V13.235L76.627 7.77307H60.9241Z" fill="#FFF6E0"/>
<path d="M89.0457 20.5923H85.3517L85.3553 13.9884C85.3575 9.55477 81.7528 5.94576 77.3184 5.94359L49.2824 5.92773H49.2789C47.6831 5.92773 46.1824 6.54906 45.0536 7.67782L3.19859 49.5328C1.67987 51.0516 0.84375 53.0704 0.84375 55.2184C0.84375 57.3665 1.67987 59.3853 3.19859 60.9041L30.361 88.0665C31.9287 89.6342 33.9879 90.4177 36.0465 90.4177C38.1059 90.4177 40.1652 89.6342 41.7329 88.0665L68.0851 61.7143C68.8059 60.9934 68.8059 59.825 68.0851 59.105C67.3643 58.3841 66.1958 58.3841 65.4751 59.105L39.1229 85.4572C37.4269 87.1532 34.667 87.1532 32.9709 85.4572L5.80857 58.2948C4.98687 57.4731 4.53421 56.3803 4.53421 55.2184C4.53421 54.0566 4.98687 52.9638 5.80857 52.142L47.6629 10.2878C48.0946 9.85606 48.6684 9.61819 49.2789 9.61819H49.2804L77.3164 9.63406C79.7151 9.63477 81.6663 11.5881 81.6648 13.9869L81.6562 29.4494H73.3448C72.629 29.4494 71.9809 29.1567 71.5124 28.6853C72.2845 28.3545 73.0082 27.8765 73.6374 27.2473C76.2891 24.5948 76.2891 20.2802 73.6374 17.6284C70.9848 14.9759 66.6702 14.9759 64.0176 17.6284C61.3659 20.2802 61.3659 24.5948 64.0176 27.2473C65.0008 28.2305 66.2132 28.8482 67.484 29.1027C68.3871 31.4604 70.6728 33.1399 73.3448 33.1399H81.6541L81.649 41.9854C81.649 42.5959 81.4111 43.169 80.9794 43.5999L75.9136 48.6664C75.1928 49.3872 75.1928 50.5556 75.9136 51.2765C76.6338 51.9965 77.8021 51.9965 78.5229 51.2765L83.5893 46.21C84.7167 45.0819 85.3388 43.5827 85.3395 41.9876L85.3445 33.1399H89.0457C92.5049 33.1399 95.3195 30.3259 95.3195 26.8661C95.3195 23.407 92.5049 20.5923 89.0457 20.5923ZM66.6276 20.2377C67.2346 19.6307 68.031 19.328 68.8282 19.328C69.6247 19.328 70.4211 19.6314 71.0281 20.2377C71.2198 20.4301 71.3783 20.6427 71.5096 20.8669C69.4842 21.4875 67.8927 23.1086 67.311 25.1513C67.0666 25.0151 66.8353 24.8456 66.6276 24.6381C65.4145 23.4243 65.4145 21.4508 66.6276 20.2377ZM89.0457 29.4494H85.3467L85.3496 24.2828H89.0457C90.4701 24.2828 91.6291 25.4418 91.6291 26.8661C91.6291 28.2903 90.4701 29.4494 89.0457 29.4494Z" fill="#E7C647"/>
<path d="M30.6285 52.4838C30.8556 53.3004 31.5973 53.8345 32.4046 53.8345C32.569 53.8345 32.7354 53.813 32.9005 53.7668L51.843 48.4942C52.8246 48.221 53.3991 47.2033 53.126 46.2215C52.8528 45.2405 51.8358 44.6661 50.8533 44.9392L31.9108 50.2111C30.9299 50.485 30.3554 51.502 30.6285 52.4838Z" fill="#E7C647"/>
<path d="M38.9667 54.9186C37.9388 55.9465 37.373 57.3124 37.373 58.7662C37.373 60.2193 37.9388 61.5852 38.9667 62.6131C40.0277 63.6734 41.4203 64.2039 42.8135 64.2039C44.2068 64.2039 45.6001 63.6734 46.6611 62.6131C48.7824 60.4917 48.7824 57.0398 46.6611 54.9186C44.5399 52.7973 41.0879 52.7973 38.9667 54.9186ZM44.0512 60.003C43.3686 60.6856 42.2586 60.6856 41.576 60.003C41.2451 59.673 41.0635 59.2333 41.0635 58.7655C41.0635 58.2984 41.2458 57.8587 41.576 57.5279C41.9176 57.1869 42.3659 57.0161 42.8135 57.0161C43.2619 57.0161 43.7102 57.1869 44.0512 57.5279C44.7337 58.2105 44.7337 59.3213 44.0512 60.003Z" fill="#E7C647"/>
<path d="M47.5744 43.9324C49.6957 41.8104 49.6957 38.3592 47.5744 36.2379C46.5466 35.2101 45.1799 34.6443 43.7268 34.6443C42.2737 34.6443 40.9071 35.2101 39.88 36.2379C37.7587 38.3592 37.7587 41.8104 39.88 43.9324C40.941 44.9926 42.3336 45.5231 43.7268 45.5231C45.1201 45.5231 46.5135 44.9926 47.5744 43.9324ZM42.4893 38.8472C42.8201 38.5163 43.2598 38.3347 43.7268 38.3347C44.1946 38.3347 44.6343 38.5163 44.9645 38.8472C45.6471 39.5298 45.6471 40.6398 44.9645 41.3224C44.2826 42.005 43.1719 42.005 42.4893 41.3224C41.8074 40.6398 41.8074 39.5298 42.4893 38.8472Z" fill="#E7C647"/>
<path d="M19.1963 48.6709C18.4756 47.9501 17.3072 47.9501 16.5864 48.6709L11.3433 53.9139C10.9973 54.2599 10.8027 54.7291 10.8027 55.2185C10.8027 55.708 10.9973 56.1772 11.3433 56.5232L34.7425 79.9223C35.1021 80.2819 35.575 80.4622 36.0471 80.4622C36.5192 80.4622 36.9913 80.2819 37.3518 79.9223L72.3361 44.9372C73.0569 44.2163 73.0569 43.0479 72.3361 42.3272L48.9378 18.9288C48.5918 18.5828 48.1225 18.3882 47.6331 18.3882C47.1437 18.3882 46.6744 18.5828 46.3285 18.9288L27.0248 38.2323C26.3042 38.9531 26.3042 40.1216 27.0248 40.8422C27.745 41.5624 28.9134 41.5624 29.6341 40.8422L47.6331 22.8434L68.4222 43.6325L36.0471 76.0076L15.2579 55.2185L19.1963 51.2802C19.9165 50.5593 19.9172 49.3916 19.1963 48.6709Z" fill="#E7C647"/>
<path d="M71.9996 53.3452C71.5138 53.3452 71.038 53.5427 70.6949 53.8858C70.3519 54.2289 70.1543 54.7054 70.1543 55.1904C70.1543 55.6755 70.3519 56.1519 70.6949 56.4951C71.038 56.8382 71.5138 57.0357 71.9996 57.0357C72.4846 57.0357 72.9603 56.8382 73.3042 56.4951C73.6473 56.1519 73.8448 55.6755 73.8448 55.1904C73.8448 54.7054 73.6473 54.2289 73.3042 53.8858C72.9603 53.5427 72.4846 53.3452 71.9996 53.3452Z" fill="#E7C647"/>
<path d="M24.4147 46.0601C24.76 45.7171 24.9561 45.2428 24.9561 44.7556C24.9561 44.2704 24.76 43.7962 24.4147 43.4509C24.0717 43.1079 23.5973 42.9103 23.1108 42.9103C22.625 42.9103 22.1492 43.1079 21.8062 43.4509C21.4624 43.794 21.2656 44.2704 21.2656 44.7556C21.2656 45.2428 21.4624 45.7171 21.8062 46.0601C22.1507 46.4055 22.625 46.6007 23.1108 46.6007C23.5973 46.6007 24.0717 46.4055 24.4147 46.0601Z" fill="#E7C647"/>
</g>
</g>
</g>
</g>
<defs>
<clipPath id="clip0_165_4483">
<rect width="95.5829" height="95.5829" fill="white" transform="translate(0.84375 0.945679)"/>
</clipPath>
<clipPath id="clip1_165_4483">
<rect width="95.5829" height="95.5829" fill="white" transform="translate(0.84375 0.945679)"/>
</clipPath>
<clipPath id="clip2_165_4483">
<rect width="95.5829" height="95.5829" fill="white" transform="translate(0.84375 0.945679)"/>
</clipPath>
</defs>
</svg>
