<svg width="96" height="96" viewBox="0 0 96 96" fill="none" xmlns="http://www.w3.org/2000/svg">
<g clip-path="url(#clip0_182_4869)">
<g clip-path="url(#clip1_182_4869)">
<g clip-path="url(#clip2_182_4869)">
<mask id="mask0_182_4869" style="mask-type:luminance" maskUnits="userSpaceOnUse" x="2" y="0" width="94" height="94">
<path d="M95.7212 0.261353H2.00488V93.9776H95.7212V0.261353Z" fill="white"/>
</mask>
<g mask="url(#mask0_182_4869)">
<path d="M20.6562 22.6542V47.7613C25.4062 46.1779 37.0777 45.8613 45.7634 57.2613C47.7991 61.559 51.0563 71.5113 47.7991 76.9399L57.2991 82.3685V41.6542L20.6562 22.6542Z" fill="#FFF6E0"/>
<path d="M94.7725 20.5305L58.2732 0.488333C57.7248 0.18732 57.06 0.18732 56.5115 0.488333L42.7543 8.04229C42.464 8.1188 42.193 8.26466 41.9685 8.47415L20.0129 20.5305C19.4275 20.8514 19.0635 21.4664 19.0635 22.1349V46.3748C15.3598 47.5331 11.9657 49.5758 9.1436 52.3986C1.7877 59.7538 -0.0877414 70.9721 4.4768 80.3136C4.9201 81.2216 6.0162 81.5985 6.92425 81.1545C7.83301 80.7104 8.2091 79.6144 7.7658 78.7063C3.88766 70.7691 5.48138 61.2374 11.7319 54.987C15.6408 51.078 20.8374 48.9252 26.365 48.9252C31.8927 48.9252 37.0893 51.078 40.9982 54.987C44.9063 58.8951 47.0593 64.0918 47.0593 69.6194C47.0593 75.1471 44.9063 80.3437 40.9975 84.2525C34.747 90.503 25.2153 92.0968 17.2782 88.2187C16.3701 87.7746 15.2739 88.1515 14.8307 89.0594C14.3867 89.9683 14.7628 91.0643 15.6716 91.5076C19.0742 93.1707 22.7251 93.9786 26.3493 93.9786C32.6721 93.978 38.9105 91.5169 43.5865 86.8409C45.7308 84.6966 47.4253 82.2227 48.6244 79.5335L56.5115 83.8643C56.7861 84.0152 57.0893 84.0902 57.3925 84.0902C57.6955 84.0902 57.9995 84.0152 58.2732 83.8643L94.7725 63.8229C95.3581 63.5011 95.722 62.8862 95.722 62.2184V49.4979C95.722 48.4869 94.9027 47.6675 93.8916 47.6675C92.8807 47.6675 92.0612 48.4869 92.0612 49.4979V61.1352L59.2285 79.1639V43.2566L70.0644 37.3064V46.7387C70.0644 47.3866 70.4061 47.9856 70.9631 48.3146C71.2505 48.4841 71.5723 48.569 71.8947 48.569C72.1979 48.569 72.5018 48.494 72.777 48.3424L80.5984 44.0374C81.1833 43.7156 81.5458 43.1015 81.5458 42.4345V31.0016L92.0612 25.228V34.8554C92.0612 35.8665 92.8807 36.6859 93.8916 36.6859C94.9027 36.6859 95.722 35.8665 95.722 34.8554V22.1349C95.722 21.467 95.3581 20.8514 94.7725 20.5305ZM57.3925 4.18058L90.0886 22.1349L79.7747 27.7984L47.0786 9.84409L57.3925 4.18058ZM57.3925 40.0885L24.6963 22.1349L35.3883 16.2633L68.0852 34.217L57.3925 40.0885ZM71.8876 32.1292L39.1914 14.1755L43.2755 11.9326L75.9723 29.8862L71.8876 32.1292ZM43.5865 52.3986C38.9862 47.7983 32.8701 45.2651 26.365 45.2651C25.1345 45.2651 23.9191 45.3559 22.7242 45.5339V25.228L55.5685 43.2632V79.1703L49.8678 76.0401C50.4291 73.9737 50.7194 71.8187 50.7194 69.6194C50.7194 63.1144 48.1861 56.9983 43.5865 52.3986ZM77.8857 41.3526L73.7251 43.6428V35.2966L77.8857 33.0121V41.3526Z" fill="#E7C647"/>
<path d="M93.8909 40.3362C93.4098 40.3362 92.9371 40.5322 92.5969 40.8725C92.2565 41.2128 92.0605 41.6848 92.0605 42.1666C92.0605 42.6478 92.2565 43.1197 92.5969 43.4601C92.9371 43.8011 93.4098 43.9963 93.8909 43.9963C94.3722 43.9963 94.8447 43.8011 95.1851 43.4601C95.5255 43.1197 95.7214 42.6478 95.7214 42.1666C95.7214 41.6848 95.5255 41.2128 95.1851 40.8725C94.8447 40.5322 94.3722 40.3362 93.8909 40.3362Z" fill="#E7C647"/>
<path d="M20.2092 71.4488C20.6775 71.4488 21.1466 71.2701 21.5033 70.9133C22.2183 70.1982 22.2183 69.0392 21.5033 68.3242L20.2356 67.0559H31.0536C33.6776 67.0559 35.8125 69.1908 35.8125 71.8148C35.8125 74.4388 33.6776 76.5739 31.0536 76.5739H24.6435C23.6326 76.5739 22.8131 77.3932 22.8131 78.4043C22.8131 79.4145 23.6326 80.234 24.6435 80.234H31.0536C35.6961 80.234 39.4734 76.4573 39.4734 71.8148C39.4734 67.1723 35.6961 63.3958 31.0536 63.3958H20.2356L21.5033 62.1272C22.2183 61.4123 22.2183 60.2533 21.5033 59.5384C20.7889 58.824 19.6299 58.824 18.915 59.5384L14.522 63.9313C13.8078 64.6462 13.8078 65.8052 14.522 66.5203L18.915 70.9124C19.2725 71.2701 19.7408 71.4488 20.2092 71.4488Z" fill="#E7C647"/>
<path d="M10.438 87.379C9.91746 87.379 9.40051 87.1573 9.03944 86.7275L9.03587 86.7233C8.38522 85.9496 8.48532 84.7956 9.25895 84.145C10.0326 83.4936 11.1873 83.5937 11.838 84.3673C12.4879 85.1417 12.3899 86.2979 11.6163 86.9485C11.2724 87.2374 10.8541 87.379 10.438 87.379Z" fill="#E7C647"/>
</g>
</g>
</g>
</g>
<defs>
<clipPath id="clip0_182_4869">
<rect width="95" height="95" fill="white" transform="translate(0.977539 0.261353)"/>
</clipPath>
<clipPath id="clip1_182_4869">
<rect width="95" height="95" fill="white" transform="translate(0.977539 0.261353)"/>
</clipPath>
<clipPath id="clip2_182_4869">
<rect width="95" height="95" fill="white" transform="translate(0.977539 0.261353)"/>
</clipPath>
</defs>
</svg>
