<svg width="59" height="58" viewBox="0 0 59 58" fill="none" xmlns="http://www.w3.org/2000/svg">
<rect x="0.5" width="58" height="58" rx="29" fill="#087906" fill-opacity="0.12"/>
<path d="M24.3083 29C24.3083 29.3185 24.0501 29.5767 23.7316 29.5767C23.4131 29.5767 23.1549 29.3185 23.1549 29C23.1549 28.6815 23.4131 28.4233 23.7316 28.4233C24.0501 28.4233 24.3083 28.6815 24.3083 29ZM24.3083 29H23.7316M30.0753 29C30.0753 29.3185 29.8171 29.5767 29.4986 29.5767C29.1801 29.5767 28.9219 29.3185 28.9219 29C28.9219 28.6815 29.1801 28.4233 29.4986 28.4233C29.8171 28.4233 30.0753 28.6815 30.0753 29ZM30.0753 29H29.4986M35.8424 29C35.8424 29.3185 35.5842 29.5767 35.2657 29.5767C34.9472 29.5767 34.689 29.3185 34.689 29C34.689 28.6815 34.9472 28.4233 35.2657 28.4233C35.5842 28.4233 35.8424 28.6815 35.8424 29ZM35.8424 29H35.2657M43.3395 29C43.3395 36.0071 37.1427 41.6875 29.4986 41.6875C28.1338 41.6875 26.8151 41.5064 25.5696 41.169C24.0702 42.2225 22.2429 42.8409 20.2714 42.8409C19.965 42.8409 19.662 42.826 19.3635 42.7968C19.1179 42.7729 18.8746 42.7393 18.6347 42.6963C19.3783 41.8187 19.9065 40.7535 20.1389 39.5818C20.2783 38.879 19.9341 38.1964 19.4207 37.6966C17.0875 35.4255 15.6577 32.3658 15.6577 29C15.6577 21.9929 21.8545 16.3125 29.4986 16.3125C37.1427 16.3125 43.3395 21.9929 43.3395 29Z" stroke="#008753" stroke-opacity="0.7" stroke-width="2" stroke-linecap="round" stroke-linejoin="round"/>
</svg>
