<svg width="14" height="17"
    viewBox="0 0 14 17" fill="none"
    xmlns="http://www.w3.org/2000/svg">
    <g clip-path="url(#clip0_235_5567)">
        <path fill-rule="evenodd"
            clip-rule="evenodd"
            d="M12.6849 1.95286V15.6671L7.33203 10.3338L1.97909 15.6671V1.95286H12.6849ZM12.6849 0.809998H1.97909C1.67487 0.809998 1.38311 0.930399 1.16799 1.14473C0.952875 1.35905 0.832031 1.64975 0.832031 1.95286V15.6671C0.832157 15.8931 0.899482 16.1139 1.02552 16.3017C1.15156 16.4895 1.33065 16.6359 1.54015 16.7224C1.67891 16.7812 1.82831 16.811 1.97909 16.81C2.12988 16.8105 2.27926 16.7811 2.41855 16.7236C2.55784 16.666 2.68426 16.5814 2.79045 16.4748L7.33203 11.8576L11.874 16.4748C11.9801 16.5814 12.1065 16.666 12.2457 16.7235C12.3849 16.7811 12.5342 16.8104 12.6849 16.81C12.8356 16.811 12.9848 16.7811 13.1235 16.7224C13.333 16.636 13.5122 16.4896 13.6383 16.3018C13.7644 16.114 13.8318 15.8931 13.832 15.6671V1.95286C13.832 1.64975 13.7111 1.35905 13.496 1.14473C13.2809 0.930399 12.9891 0.809998 12.6849 0.809998Z"
            fill="#B6B6B6" />
    </g>
    <defs>
        <clipPath id="clip0_235_5567">
            <rect width="14" height="16"
                fill="white"
                transform="translate(-0.00195312 0.809998)" />
        </clipPath>
    </defs>
</svg>