<svg width="20" height="20" viewBox="0 0 20 20" fill="none" xmlns="http://www.w3.org/2000/svg">
    <g clip-path="url(#clip0_268_5271)">
        <path
            d="M18.3332 9.23351V10.0002C18.3321 11.7972 17.7503 13.5457 16.6743 14.985C15.5983 16.4243 14.0859 17.4772 12.3626 17.9868C10.6394 18.4963 8.79755 18.4351 7.1119 17.8123C5.42624 17.1896 3.98705 16.0386 3.00897 14.5311C2.03089 13.0235 1.56633 11.2402 1.68457 9.44711C1.80281 7.65399 2.49751 5.94712 3.66507 4.58108C4.83263 3.21503 6.41049 2.263 8.16333 1.86697C9.91616 1.47094 11.7501 1.65213 13.3915 2.38352"
            stroke="#6FCF97" stroke-width="2" stroke-linecap="round" stroke-linejoin="round" />
        <path d="M18.3333 3.33353L10 11.6752L7.5 9.17519" stroke="#6FCF97" stroke-width="2"
            stroke-linecap="round" stroke-linejoin="round" />
    </g>
    <defs>
        <clipPath id="clip0_268_5271">
            <path
                d="M0 10.0002C0 4.47734 4.47715 0.000183105 10 0.000183105C15.5228 0.000183105 20 4.47734 20 10.0002C20 15.523 15.5228 20.0002 10 20.0002C4.47715 20.0002 0 15.523 0 10.0002Z"
                fill="white" />
        </clipPath>
    </defs>
</svg>
    