<svg width="21" height="21" viewBox="0 0 21 21" fill="none" xmlns="http://www.w3.org/2000/svg">
    <rect x="0.623779" y="0.109985" width="20" height="20" rx="10" fill="#FFC952" />
    <path
        d="M16.0691 6.50391C15.991 6.42578 15.9031 6.36393 15.8054 6.31836C15.7078 6.27279 15.6003 6.25 15.4832 6.25C15.366 6.25 15.2585 6.27279 15.1609 6.31836C15.0632 6.36393 14.9753 6.42578 14.8972 6.50391L8.68628 12.7148L6.06909 10.0977C5.99097 10.0195 5.90308 9.96094 5.80542 9.92188C5.70776 9.88281 5.60034 9.86328 5.48315 9.86328C5.24878 9.86328 5.04696 9.94466 4.87769 10.1074C4.70841 10.2702 4.62378 10.4688 4.62378 10.7031C4.62378 10.8333 4.64982 10.9505 4.7019 11.0547C4.75399 11.1589 4.81909 11.25 4.89722 11.3281L8.10034 14.5312C8.16545 14.5964 8.25008 14.6517 8.35425 14.6973C8.45841 14.7428 8.56909 14.7656 8.68628 14.7656C8.80347 14.7656 8.91089 14.7428 9.00854 14.6973C9.1062 14.6517 9.19409 14.5964 9.27222 14.5312L16.0691 7.71484C16.1602 7.63672 16.2286 7.54557 16.2742 7.44141C16.3197 7.33724 16.3425 7.22656 16.3425 7.10938C16.3425 6.99219 16.3197 6.87826 16.2742 6.76758C16.2286 6.6569 16.1602 6.56901 16.0691 6.50391Z"
        fill="#231F20" fill-opacity="0.9" />
</svg>