<svg width="31" height="29" viewBox="0 0 31 29" fill="none" xmlns="http://www.w3.org/2000/svg">
<path d="M8.57812 21.175C7.67812 21.025 7.20311 21.3625 7.07812 21.55L6.89062 21.7375C6.70312 21.9875 6.32812 22.525 6.32812 22.675V23.8C6.32812 23.9875 6.32812 24.55 6.51562 24.925C6.70312 25.3 6.70312 25.4875 6.89062 25.675C7.07812 25.8625 7.26562 26.05 7.45312 26.05C7.64062 26.05 8.57812 26.2375 8.76562 26.2375H10.8281C11.3906 26.2375 11.5781 26.05 11.9531 26.05C12.3281 26.05 12.7031 25.8625 12.7031 25.675C12.7031 25.4875 12.8906 25.3 13.0781 25.1125C13.2656 24.925 13.0781 24.55 13.2656 24.2408C13.4531 23.9315 13.2656 23.8 13.2656 23.6125V22.675C13.2656 22.4875 13.0781 22.3 13.0781 22.1125C13.0781 21.925 12.7031 21.7375 12.5156 21.55C12.3656 21.4 11.9531 21.2375 11.7656 21.175C11.0781 21.2375 9.47813 21.325 8.57812 21.175Z" fill="#FFF6E0"/>
<path d="M25.2656 11.425C22.5656 12.475 17.3906 11.8625 15.1406 11.425L14.5781 11.8L13.6406 13.3L13.0781 14.6125C13.6781 14.7625 15.4531 16.3 16.2656 17.05L16.8281 18.175C18.1781 18.325 18.5156 19.4875 18.5156 20.05L18.7031 23.9875C21.2531 24.7375 27.1406 23.55 29.7656 22.8625C29.9156 22.5625 29.3281 19.3625 29.0156 17.8C28.2656 15.55 26.2031 12.6125 25.2656 11.425Z" fill="#FFF6E0"/>
<path d="M27.9264 14.3942C27.0309 12.7574 26.1406 11.6997 25.8199 11.3417V8.92583L29.9802 5.50977C30.0793 5.42836 30.1379 5.30783 30.1407 5.17962C30.1435 5.0514 30.0901 4.92844 29.9947 4.84287L26.8469 2.02148C26.6662 1.85951 26.3883 1.87475 26.2263 2.0554C26.0643 2.23611 26.0795 2.51397 26.2602 2.67599L29.0266 5.15554L25.8201 7.78846V5.99119C25.8201 5.74849 25.6234 5.55169 25.3806 5.55169C25.1379 5.55169 24.9412 5.74849 24.9412 5.99119L24.9409 11.1416C21.8031 11.6495 18.6273 11.6494 15.4894 11.1415V5.99119C15.4894 5.74849 15.2927 5.55169 15.0499 5.55169C14.8072 5.55169 14.6104 5.74849 14.6104 5.99119V7.78861L11.4037 5.15554L14.8247 2.0888C15.328 1.63749 15.978 1.44993 16.6034 1.52423C16.7322 2.07749 17.028 3.23799 17.4822 4.39411C18.2286 6.29382 19.0993 7.42954 20.0698 7.76956C20.1169 7.78602 20.166 7.7943 20.2151 7.7943C20.2642 7.7943 20.3134 7.78602 20.3604 7.76956C21.3309 7.42954 22.2016 6.29382 22.9482 4.39414C23.4017 3.24022 23.6971 2.08277 23.8264 1.52816C24.2136 1.48186 24.6135 1.53366 24.9852 1.69281C25.2085 1.78838 25.4667 1.68484 25.5622 1.46177C25.6578 1.23863 25.5543 0.980341 25.3312 0.884829C24.2023 0.401469 22.8861 0.623491 21.9778 1.45022L21.5722 1.81938C20.7985 2.52394 19.632 2.52394 18.8586 1.81938L18.4531 1.45022C17.2556 0.360102 15.4434 0.353364 14.238 1.43446L10.4356 4.84298C10.3401 4.92856 10.2868 5.05159 10.2896 5.17973C10.2923 5.30794 10.351 5.42847 10.45 5.50988L14.6103 8.92598V11.3414C14.3222 11.6621 13.5818 12.5376 12.7926 13.8803C12.1243 13.5242 11.4174 13.1725 10.7014 12.8166C10.0758 12.5054 9.44557 12.192 8.84062 11.8738C9.43185 11.1335 9.88792 10.2954 10.0878 9.31294C10.3932 7.81152 9.94642 6.47037 8.86211 5.63333C7.83416 4.83983 6.41853 4.66294 5.3394 5.19315C4.76092 5.47737 3.79051 6.21495 3.79051 7.96137C3.79051 9.06683 4.49257 10.1119 5.93688 11.1563C6.38865 11.483 6.89658 11.7994 7.43718 12.1082C6.76695 12.7674 5.99778 13.3542 5.27111 13.9084C3.70666 15.1016 2.22237 16.2347 2.18398 17.7612C1.22688 17.9907 0.488393 18.7888 0.359833 19.7941C0.0675557 22.0828 0.0675557 24.4038 0.359833 26.6927C0.507495 27.8468 1.45939 28.7287 2.62334 28.7897C4.95712 28.9114 7.30728 28.9722 9.65752 28.9722C12.0077 28.9722 14.358 28.9114 16.6918 28.7897C17.8561 28.7287 18.8077 27.8466 18.9546 26.6927C19.0422 26.0084 19.1029 25.3212 19.1382 24.6329C19.4957 24.6436 19.8562 24.6493 20.2151 24.6493C25.9522 24.6493 29.6953 23.307 29.8519 23.2498C30.0253 23.1865 30.1407 23.0216 30.1407 22.837C30.1408 19.2039 28.9366 16.2405 27.9264 14.3942ZM18.2668 2.46897C19.3774 3.48087 21.0529 3.48087 22.1641 2.46909L22.5696 2.09999C22.652 2.02499 22.7391 1.95696 22.83 1.8959C22.6774 2.47811 22.4432 3.27649 22.1304 4.0725C21.3978 5.93663 20.7061 6.63514 20.2153 6.87837C19.7245 6.63514 19.0328 5.93663 18.3004 4.0725C17.9876 3.27637 17.7534 2.47747 17.6008 1.89502C17.6913 1.95614 17.7784 2.02435 17.8615 2.09993L18.2668 2.46897ZM4.66968 7.9611C4.66968 7.00613 5.03535 6.32168 5.72718 5.98174C6.01653 5.83958 6.34717 5.77062 6.68752 5.77062C7.25625 5.77062 7.85182 5.96333 8.32526 6.32881C8.80064 6.69574 9.54986 7.5486 9.22672 9.13744C9.04957 10.0084 8.61618 10.7661 8.05061 11.4454C6.15123 10.381 4.66968 9.25099 4.66968 7.9611ZM2.66916 18.575C3.45253 18.5344 4.23618 18.5004 4.99841 18.474C5.241 18.4656 5.43078 18.2622 5.42235 18.0196C5.41391 17.777 5.21205 17.5879 4.96796 17.5956C4.34636 17.6171 3.71053 17.6439 3.0723 17.675C3.18551 16.6053 4.40958 15.6708 5.80436 14.607C6.6237 13.982 7.49351 13.3186 8.24111 12.5504C8.91457 12.9093 9.61773 13.259 10.3102 13.6033C11.0035 13.9481 11.7023 14.2956 12.3651 14.6492C11.9297 15.4764 11.5015 16.439 11.1471 17.5235C9.66877 17.5071 8.19285 17.5134 6.72795 17.5456C6.48525 17.5509 6.29287 17.7519 6.2982 17.9946C6.30352 18.2373 6.50351 18.4317 6.74715 18.4243C10.0233 18.3524 13.3538 18.4032 16.6462 18.575C17.3855 18.6134 17.9898 19.1727 18.083 19.9053C18.1447 20.3876 18.1922 20.8714 18.227 21.3561C18.1915 21.8424 18.1432 22.3253 18.083 22.7924C17.9898 23.5244 17.3854 24.0834 16.6455 24.1218C15.6505 24.1738 14.6508 24.2142 13.6653 24.2438C13.6864 23.6232 13.6727 23.0001 13.623 22.383C13.5558 21.5484 12.8787 20.8847 12.0481 20.8392C10.6261 20.7614 9.18405 20.7614 7.76235 20.8392C6.93172 20.8847 6.2547 21.5484 6.18746 22.383C6.13736 23.0048 6.12382 23.6328 6.14561 24.2581C4.98828 24.2273 3.82151 24.1821 2.66916 24.1218C1.92956 24.0835 1.32508 23.5244 1.23192 22.7922C1.17297 22.3306 1.12463 21.8493 1.08783 21.3613C1.12264 20.8749 1.1701 20.3894 1.23192 19.9053C1.32555 19.1728 1.93003 18.6134 2.66916 18.575ZM13.1385 15.0756C14.5622 15.8903 15.7125 16.7426 16.0991 17.6691C14.7592 17.6052 13.4144 17.5608 12.07 17.5367C12.3868 16.6193 12.7596 15.7944 13.1385 15.0756ZM12.7468 24.9242C12.7147 25.3227 12.3937 25.6394 12.0001 25.6609C10.61 25.737 9.20047 25.737 7.81027 25.6609C7.41667 25.6394 7.09563 25.3227 7.0635 24.9242C6.99746 24.1045 6.99746 23.2733 7.0635 22.4536C7.09563 22.0551 7.41667 21.7384 7.81031 21.7168C8.50533 21.6788 9.20527 21.6598 9.90517 21.6598C10.6051 21.6598 11.305 21.6788 12.0001 21.7168C12.3937 21.7384 12.7147 22.0551 12.7468 22.4536C12.8129 23.2733 12.8129 24.1045 12.7468 24.9242ZM16.6461 27.9118C12.0089 28.1535 7.3065 28.1535 2.66946 27.9118C1.93021 27.873 1.32555 27.3134 1.23192 26.5811C1.135 25.822 1.07207 25.0593 1.0416 24.2954C1.45095 24.7058 2.00744 24.9676 2.62346 24.9996C3.81067 25.0618 5.01341 25.108 6.20553 25.139C6.33442 25.9047 6.98021 26.4958 7.76227 26.5386C8.47327 26.5775 9.18926 26.597 9.90517 26.597C10.6211 26.597 11.3371 26.5775 12.048 26.5386C12.8349 26.4955 13.4836 25.8974 13.6069 25.125C14.6262 25.095 15.6613 25.0534 16.6911 24.9996C17.3075 24.9676 17.8642 24.7056 18.2736 24.2951C18.2431 25.0591 18.1801 25.822 18.083 26.5812C17.9897 27.3135 17.3854 27.873 16.6461 27.9118ZM27.8195 22.9138C27.7291 21.5927 27.562 20.2763 27.3212 18.9934C27.2764 18.7549 27.047 18.5979 26.8082 18.6426C26.5697 18.6873 26.4126 18.9171 26.4574 19.1556C26.6999 20.4477 26.865 21.775 26.9508 23.1063C26.6124 23.1756 26.2287 23.2476 25.804 23.3177C25.7509 21.5504 25.5623 19.7906 25.2413 18.0792C25.1965 17.8406 24.9668 17.6837 24.7284 17.7282C24.4898 17.773 24.3327 18.0027 24.3775 18.2412C24.6964 19.9421 24.8815 21.6924 24.9288 23.4499C23.6184 23.6298 22.0182 23.7703 20.2152 23.7703C19.8666 23.7703 19.5163 23.7648 19.169 23.7544C19.1938 22.4318 19.1227 21.1076 18.9547 19.7942C18.823 18.7593 18.0445 17.9441 17.0463 17.7426C16.7236 16.3997 15.3449 15.321 13.5677 14.3068C14.2701 13.1179 14.9273 12.316 15.2142 11.987C16.8741 12.2632 18.5448 12.4017 20.2154 12.4017C21.8859 12.4017 23.5564 12.2633 25.2163 11.987C25.546 12.3641 26.3623 13.3612 27.1696 14.8426C28.0946 16.5399 29.1918 19.2301 29.2585 22.521C28.9727 22.6112 28.4826 22.7555 27.8195 22.9138Z" fill="#FFBE2E"/>
<path d="M11.6696 22.3834C11.0825 22.356 10.4892 22.342 9.90604 22.342C9.32277 22.342 8.72944 22.356 8.14242 22.3834C7.91824 22.3939 7.73798 22.5716 7.72429 22.7957C7.68826 23.3883 7.68826 23.9894 7.72429 24.5821C7.73794 24.8062 7.91824 24.9839 8.14242 24.9944C8.72896 25.0218 9.32236 25.0358 9.90604 25.0358C10.4897 25.0358 11.083 25.0219 11.6696 24.9944C11.8937 24.9839 12.074 24.8062 12.0877 24.5821C12.1237 23.9894 12.1237 23.3884 12.0877 22.7957C12.074 22.5717 11.8938 22.3939 11.6696 22.3834ZM11.2287 24.133C10.3454 24.1647 9.46658 24.1647 8.58334 24.133C8.57393 23.8374 8.57393 23.5405 8.58334 23.2449C9.46714 23.2131 10.3449 23.2131 11.2287 23.2449C11.2382 23.5405 11.2382 23.8374 11.2287 24.133Z" fill="#FFBE2E"/>
</svg>
