<svg width="31" height="30" viewBox="0 0 31 30" fill="none" xmlns="http://www.w3.org/2000/svg">
<path d="M22.2656 20.25H15.5156C14.273 20.25 13.2656 21.2574 13.2656 22.5V27C13.2656 28.2426 14.273 29.25 15.5156 29.25H22.2656C23.5083 29.25 24.5156 28.2426 24.5156 27V22.5C24.5156 21.2574 23.5083 20.25 22.2656 20.25Z" fill="#FFF6E0"/>
<path d="M2.39062 2.8125L2.76562 3.75L3.89062 3.375L6.14062 3.1875L9.70312 3L13.4531 3.1875L19.8281 3.75L20.3906 3.1875L20.7656 2.25C20.8281 2 20.9531 1.4625 20.9531 1.3125C20.9531 1.1625 20.4531 1.125 20.2031 1.125L19.6406 1.3125L19.0781 1.5H17.9531C17.7656 1.3125 17.3531 0.9375 17.2031 0.9375C17.0531 0.9375 16.7656 0.687499 16.6406 0.5625H15.7031L15.1406 1.125L14.3906 1.5H13.6406L12.7031 0.9375L11.7656 0.375L10.8281 0.5625L10.2656 1.125L9.32812 1.5L8.39062 1.3125C8.20312 1.25 7.79063 1.125 7.64062 1.125C7.49062 1.125 7.32814 0.75 7.26562 0.5625H6.70312L5.95312 0.75C5.82814 0.874999 5.54063 1.125 5.39062 1.125C5.20312 1.125 4.82812 1.3125 4.82812 1.5C4.82812 1.6875 4.26562 1.5 4.07812 1.5C3.89062 1.5 3.70312 1.5 3.51562 1.3125C3.36563 1.1625 3.07812 1.125 2.95312 1.125H2.20312L2.01562 1.875L2.39062 2.8125Z" fill="#FFF6E0"/>
<path d="M11.4427 19.2625C13.4309 19.2625 15.3049 18.6814 16.7197 17.6262C18.173 16.5423 18.9733 15.089 18.9733 13.5341C18.9733 11.9793 18.173 10.526 16.7197 9.44206C15.3049 8.38689 13.4309 7.80579 11.4427 7.80579C9.45453 7.80579 7.58055 8.38689 6.16578 9.44206C4.71251 10.526 3.91211 11.9793 3.91211 13.5341C3.91211 15.089 4.71247 16.5423 6.16578 17.6262C7.58055 18.6814 9.45453 19.2625 11.4427 19.2625ZM4.79103 13.5341C4.79103 10.8602 7.77498 8.68471 11.4427 8.68471C15.1105 8.68471 18.0944 10.8602 18.0944 13.5341C18.0944 16.2081 15.1105 18.3836 11.4427 18.3836C7.77498 18.3836 4.79103 16.2081 4.79103 13.5341Z" fill="#FFBE2E"/>
<path d="M27.961 25.7648C28.327 25.4808 28.5261 25.1303 28.5261 24.7471C28.5261 24.3639 28.327 24.0134 27.961 23.7294C28.2813 23.5073 28.4988 23.2503 28.6104 22.961C28.7077 22.7088 28.7698 22.3025 28.5126 21.799C28.3121 21.4069 27.9947 21.1524 27.5944 21.063C26.9532 20.92 26.1042 21.2087 25.0659 21.9213C24.5756 20.5857 23.3264 19.6296 21.8295 19.5618C21.5155 19.5476 21.2007 19.5364 20.8855 19.5267C21.1883 14.2956 21.0923 8.99603 20.5988 3.76286C20.7612 3.50122 21.072 2.92195 21.2671 2.0585C21.3846 1.53876 21.1634 1.02752 20.7038 0.756049C20.2511 0.488797 19.7054 0.540949 19.3136 0.889001C19.1169 1.06373 18.9311 1.17201 18.6126 1.17201C18.1944 1.17201 18.0077 0.988905 17.7251 0.711754C17.4017 0.394579 16.9992 0 16.2221 0C15.445 0 15.0426 0.394579 14.7193 0.711634C14.4366 0.988789 14.2499 1.1719 13.8318 1.1719C13.4137 1.1719 13.227 0.988789 12.9444 0.711634C12.621 0.394579 12.2185 0 11.4414 0C10.6644 0 10.262 0.394579 9.93875 0.711634C9.65607 0.988789 9.46932 1.1719 9.05123 1.1719C8.63318 1.1719 8.44651 0.988789 8.16376 0.711634C7.84051 0.394579 7.43814 0 6.66106 0C5.88402 0 5.48172 0.394579 5.15844 0.711634C4.87576 0.988789 4.68909 1.1719 4.27115 1.1719C3.95285 1.1719 3.76699 1.06362 3.57034 0.888945C3.17869 0.540949 2.63318 0.488741 2.18041 0.755872C1.72074 1.02723 1.4996 1.53841 1.61703 2.05815C1.81215 2.92195 2.12311 3.50134 2.28553 3.7629C2.20954 4.56866 2.14133 5.39036 2.0835 6.2103C2.06639 6.4524 2.2488 6.66255 2.49091 6.67957C2.73414 6.69645 2.94315 6.51424 2.96025 6.2721C3.0141 5.50886 3.07656 4.74345 3.14647 3.99161C8.65287 3.3286 14.2316 3.3286 19.7383 3.99161C20.2166 9.14303 20.3059 14.3577 20.0064 19.5055C18.6172 19.4811 17.2229 19.4991 15.8419 19.5617C14.345 19.6295 13.0958 20.5856 12.6054 21.9212C11.5673 21.2086 10.7181 20.9198 10.0769 21.0629C9.6767 21.1523 9.35922 21.4068 9.15878 21.799C8.90161 22.3023 8.96363 22.7086 9.06091 22.9609C9.14311 23.174 9.28317 23.3693 9.47892 23.5462C7.37607 23.4868 5.25069 23.3298 3.14647 23.0763C2.6821 18.0756 2.5829 13.0116 2.85174 8.01919C2.8648 7.77682 2.67888 7.56975 2.43653 7.55674C2.19272 7.54339 1.98717 7.72961 1.97404 7.97194C1.69935 13.0729 1.80623 18.2473 2.29034 23.3546C2.1292 23.6125 1.81402 24.1947 1.6172 25.0663C1.49954 25.5862 1.72068 26.0976 2.18053 26.3692C2.63312 26.6365 3.17887 26.5841 3.57034 26.2362C3.76728 26.0615 3.95326 25.9532 4.27126 25.9532C4.68946 25.9532 4.87625 26.1363 5.15896 26.4135C5.48236 26.7306 5.88477 27.1251 6.66189 27.1251C7.43907 27.1251 7.84149 26.7305 8.16488 26.4135C8.44756 26.1363 8.63442 25.9532 9.05255 25.9532C9.1943 25.9532 9.30961 25.9748 9.41034 26.0131C9.25025 26.1726 9.13298 26.346 9.06076 26.5333C8.96348 26.7855 8.90142 27.1918 9.1586 27.6952C9.35904 28.0874 9.67651 28.3419 10.0768 28.4312C10.1833 28.455 10.2955 28.4669 10.4135 28.4669C11.0052 28.4669 11.7396 28.1665 12.6051 27.5726C13.0953 28.9084 14.3446 29.8647 15.8417 29.9324C16.8351 29.9774 17.8353 29.9999 18.8357 29.9999C19.8358 29.9999 20.8362 29.9774 21.8294 29.9324C23.3265 29.8646 24.5757 28.9083 25.0659 27.5725C25.9314 28.1666 26.6658 28.4668 27.2576 28.4668C27.3755 28.4668 27.4878 28.4549 27.5942 28.4312C27.9945 28.3418 28.312 28.0873 28.5124 27.6951C28.7696 27.1918 28.7075 26.7855 28.6102 26.5332C28.4988 26.2439 28.2813 25.9869 27.961 25.7648ZM2.93623 3.13231C2.80105 2.88176 2.60757 2.45425 2.47433 1.86449C2.42599 1.65044 2.57921 1.5411 2.62726 1.51275C2.68533 1.47847 2.83674 1.4129 2.98668 1.54608C3.25123 1.78105 3.63632 2.05082 4.27115 2.05082C5.04815 2.05082 5.45049 1.65624 5.77381 1.33918C6.05641 1.06203 6.24316 0.878925 6.6611 0.878925C7.07911 0.878925 7.26582 1.06203 7.54853 1.33918C7.87175 1.65624 8.27416 2.05082 9.05123 2.05082C9.82835 2.05082 10.2308 1.65624 10.554 1.33918C10.8367 1.06203 11.0234 0.878925 11.4414 0.878925C11.8595 0.878925 12.0463 1.06203 12.3289 1.33918C12.6523 1.65624 13.0547 2.05082 13.8318 2.05082C14.6089 2.05082 15.0113 1.65624 15.3346 1.33918C15.6173 1.06203 15.804 0.878925 16.2221 0.878925C16.6403 0.878925 16.827 1.06203 17.1097 1.33918C17.4331 1.65624 17.8356 2.05082 18.6127 2.05082C19.2475 2.05082 19.6327 1.78111 19.8973 1.54608C20.0471 1.41296 20.1988 1.47841 20.2569 1.5128C20.3051 1.54122 20.4583 1.65056 20.4099 1.86466C20.2766 2.4546 20.083 2.88217 19.9482 3.13225C14.3022 2.44388 8.58166 2.44388 2.93623 3.13231ZM21.3037 29.0737C20.712 29.096 20.1184 29.1109 19.5241 29.1171C19.7868 27.1894 20.2745 25.2432 20.9771 23.3245C21.0606 23.0965 20.9435 22.8442 20.7156 22.7607C20.4876 22.6772 20.2353 22.7943 20.1518 23.0222C19.4127 25.0405 18.9037 27.0898 18.6366 29.1199C18.0458 29.1181 17.4555 29.1082 16.8665 29.0905C17.4621 24.759 19.0509 21.4289 19.5996 20.3776C20.1525 20.3841 20.7048 20.3981 21.2554 20.4185C21.1284 20.678 20.9787 20.9964 20.8165 21.367C20.7192 21.5893 20.8205 21.8484 21.0428 21.9458C21.1002 21.9709 21.1599 21.9828 21.2188 21.9828C21.3881 21.9828 21.5494 21.8844 21.6216 21.7195C21.8532 21.1906 22.0571 20.7736 22.2026 20.4896C22.7231 20.5918 23.1888 20.8388 23.557 21.1873C22.8589 22.7502 21.7665 25.6143 21.3037 29.0737ZM7.5497 25.7858C7.26699 26.063 7.08012 26.2461 6.662 26.2461C6.24383 26.2461 6.05705 26.063 5.77437 25.7859C5.45094 25.4688 5.04852 25.0742 4.27137 25.0742C3.63714 25.0742 3.25194 25.3438 2.98686 25.579C2.83697 25.7121 2.68556 25.6466 2.62755 25.6123C2.57939 25.5839 2.4261 25.4745 2.47462 25.2601C2.61783 24.6258 2.83105 24.1788 2.96617 23.9385C5.0357 24.1902 7.1261 24.3517 9.19681 24.418C9.1631 24.5244 9.14536 24.6343 9.14536 24.7472C9.14536 24.8612 9.1634 24.9723 9.19786 25.0796C9.1508 25.0764 9.10276 25.0743 9.05277 25.0743C8.27551 25.0742 7.8731 25.4688 7.5497 25.7858ZM10.2684 27.5734C10.1714 27.5517 10.0464 27.5005 9.94148 27.2953C9.82283 27.0629 9.85006 26.9296 9.881 26.8496C9.97201 26.6138 10.3039 26.3771 10.8155 26.1832C10.9879 26.1178 11.1012 25.9519 11.0993 25.7676C11.0974 25.5833 10.9806 25.4197 10.8069 25.3581C10.2692 25.1671 10.0243 24.9075 10.0243 24.747C10.0243 24.5865 10.2692 24.3269 10.8069 24.136C10.9806 24.0744 11.0974 23.9108 11.0993 23.7265C11.1012 23.5421 10.9879 23.3762 10.8155 23.3109C10.3039 23.117 9.97201 22.8804 9.881 22.6445C9.85013 22.5645 9.82283 22.4312 9.94148 22.1989C10.0464 21.9936 10.1714 21.9424 10.2684 21.9207C10.4754 21.8745 11.0867 21.8805 12.3974 22.8524C12.3935 22.8964 12.3896 22.9405 12.3873 22.985C12.3256 24.1542 12.3256 25.3398 12.3873 26.5089C12.3896 26.5534 12.3935 26.5975 12.3974 26.6416C11.0868 27.6135 10.4757 27.6196 10.2684 27.5734ZM13.2649 23.0314C13.3395 21.6181 14.4645 20.504 15.8817 20.4398C15.8962 20.4391 15.9108 20.4387 15.9254 20.438C15.3224 21.6771 14.1964 24.2825 13.5648 27.5759C13.3919 27.2404 13.2861 26.8636 13.2649 26.4628C13.2049 25.3243 13.2049 24.1699 13.2649 23.0314ZM14.2992 28.4666C14.9509 24.4611 16.4188 21.3812 16.9265 20.4019C17.4888 20.3855 18.0524 20.3762 18.6163 20.3743C17.9227 21.7843 16.5278 25.0065 15.984 29.0585C15.9499 29.057 15.9158 29.056 15.8817 29.0544C15.2828 29.0273 14.7365 28.8122 14.2992 28.4666ZM24.4064 26.4627C24.3393 27.7362 23.419 28.7665 22.2008 29.0049C22.6175 26.0555 23.4985 23.5674 24.1547 22.0169C24.2989 22.3271 24.3873 22.6693 24.4064 23.0314C24.4664 24.1699 24.4664 25.3243 24.4064 26.4627ZM27.7299 27.2952C27.6251 27.5005 27.5001 27.5517 27.403 27.5734C27.1959 27.6195 26.5847 27.6135 25.274 26.6418C25.2779 26.5977 25.2818 26.5536 25.2842 26.5091C25.3458 25.3399 25.3458 24.1543 25.2842 22.9851C25.2818 22.9406 25.2779 22.8965 25.274 22.8525C26.5846 21.8807 27.1957 21.8745 27.403 21.9208C27.5001 21.9425 27.6251 21.9937 27.7299 22.1989C27.8486 22.4312 27.8213 22.5645 27.7904 22.6446C27.6994 22.8804 27.3675 23.1171 26.8558 23.3109C26.6835 23.3763 26.5702 23.5422 26.5721 23.7266C26.574 23.9109 26.6908 24.0744 26.8645 24.1361C27.4023 24.327 27.6472 24.5866 27.6472 24.7471C27.6472 24.9076 27.4022 25.1672 26.8645 25.3581C26.6908 25.4197 26.574 25.5833 26.5721 25.7676C26.5701 25.952 26.6834 26.1179 26.8558 26.1833C27.3675 26.3771 27.6994 26.6137 27.7904 26.8497C27.8213 26.9296 27.8486 27.0629 27.7299 27.2952Z" fill="#FFBE2E"/>
<path d="M8.50129 12.0836C10.4525 11.8245 12.4309 11.8245 14.382 12.0836C14.4016 12.0862 14.4211 12.0875 14.4404 12.0875C14.6574 12.0875 14.8461 11.9269 14.8755 11.7059C14.9075 11.4653 14.7383 11.2444 14.4977 11.2124C12.47 10.9431 10.4135 10.9431 8.38556 11.2124C8.14496 11.2444 7.9758 11.4653 8.00779 11.7059C8.03978 11.9465 8.26069 12.1155 8.50129 12.0836Z" fill="#FFBE2E"/>
<path d="M14.8755 15.4768C14.8436 15.2362 14.6224 15.0672 14.382 15.099C12.4309 15.3582 10.4525 15.3582 8.50129 15.099C8.2608 15.0671 8.03974 15.2362 8.00779 15.4768C7.9758 15.7174 8.14496 15.9383 8.38556 15.9703C9.39949 16.1049 10.4205 16.1722 11.4416 16.1722C12.4627 16.1722 13.4838 16.1049 14.4977 15.9703C14.7384 15.9383 14.9075 15.7174 14.8755 15.4768Z" fill="#FFBE2E"/>
<path d="M16.0669 13.5913C16.0669 13.3486 15.8702 13.1519 15.6275 13.1519H7.25782C7.01508 13.1519 6.81836 13.3486 6.81836 13.5913C6.81836 13.834 7.01508 14.0308 7.25782 14.0308H15.6275C15.8702 14.0308 16.0669 13.834 16.0669 13.5913Z" fill="#FFBE2E"/>
</svg>
