<svg width="30" height="31" viewBox="0 0 30 31" fill="none" xmlns="http://www.w3.org/2000/svg">
<path d="M24.3281 14.1125H13.0781V14.8625L13.2656 15.2375L14.2031 16.175L14.9531 16.55L15.3281 17.1125L15.1406 17.8625L13.8281 18.425L13.0781 19.7375L12.8906 23.675L13.4531 27.9875L13.8281 29.3L14.5781 30.05C14.7656 30.1125 15.2156 30.2375 15.5156 30.2375C15.8906 30.2375 17.5781 30.425 17.9531 30.425H20.0156H21.3281L20.9531 29.675C20.8281 29.3625 20.5781 28.625 20.5781 28.175C20.5781 27.725 20.4531 26.4875 20.3906 25.925V23.1125C20.3906 22.8125 20.7656 20.6125 20.9531 19.55V18.9875C20.9531 18.8 21.5156 18.8 21.7031 18.6125C21.8906 18.425 22.4531 18.425 22.6406 18.425C22.8281 18.425 23.3906 18.2375 23.5781 18.2375C23.7656 18.2375 23.3906 18.05 23.2031 17.8625C23.0156 17.675 23.2031 17.675 23.2031 17.4875C23.2031 17.3 23.2031 16.925 23.0156 16.7375C22.8656 16.5875 23.3281 16.3 23.5781 16.175C23.7656 16.1125 24.1406 15.95 24.1406 15.8C24.1406 15.65 24.5156 15.4875 24.7031 15.425L25.0781 14.8625V14.3L24.3281 14.1125Z" fill="#FFF6E0"/>
<path d="M2.97461 23.8973C2.97461 24.8365 3.73873 25.6007 4.67795 25.6007C5.61717 25.6007 6.38131 24.8365 6.38131 23.8973C6.38131 22.958 5.61717 22.1939 4.67795 22.1939C3.73873 22.1939 2.97461 22.958 2.97461 23.8973ZM5.50246 23.8973C5.50246 24.3519 5.13263 24.7217 4.67798 24.7217C4.22337 24.7217 3.85358 24.3519 3.85358 23.8973C3.85358 23.4427 4.22341 23.0728 4.67798 23.0728C5.13256 23.0728 5.50246 23.4427 5.50246 23.8973Z" fill="#FFBE2E"/>
<path d="M6.84299 21.5492C7.58245 21.5492 8.18407 20.9476 8.18407 20.2082C8.18407 19.4687 7.58245 18.8671 6.84299 18.8671C6.10353 18.8671 5.50195 19.4687 5.50195 20.2082C5.50195 20.9476 6.10353 21.5492 6.84299 21.5492ZM6.84299 19.746C7.09788 19.746 7.30518 19.9533 7.30518 20.2081C7.30518 20.4629 7.09788 20.6702 6.84299 20.6702C6.58818 20.6702 6.38084 20.4629 6.38084 20.2081C6.38084 19.9533 6.58822 19.746 6.84299 19.746Z" fill="#FFBE2E"/>
<path d="M11.5201 27.049C11.5201 26.3096 10.9184 25.708 10.179 25.708C9.43954 25.708 8.83789 26.3096 8.83789 27.049C8.83789 27.7885 9.43954 28.3901 10.179 28.3901C10.9184 28.3901 11.5201 27.7885 11.5201 27.049ZM9.71685 27.049C9.71685 26.7942 9.92415 26.5869 10.179 26.5869C10.4339 26.5869 10.6412 26.7942 10.6412 27.049C10.6412 27.3039 10.4339 27.5112 10.179 27.5112C9.92415 27.5112 9.71685 27.3039 9.71685 27.049Z" fill="#FFBE2E"/>
<path d="M29.2023 19.6348C29.0758 18.7143 28.2805 18.0201 27.3526 18.0201H27.0413L27.3412 17.2401C27.4284 17.0136 27.3153 16.7593 27.0888 16.6722C26.8622 16.585 26.6079 16.6982 26.5209 16.9247L26.0997 18.0201H24.2709C24.209 17.9904 24.1463 17.9625 24.0824 17.9387C23.6256 17.7684 23.394 17.5031 23.394 17.1504C23.394 16.8218 23.9496 16.5552 24.1889 16.4556C24.8989 16.1594 25.4077 15.5328 25.5501 14.7792C25.8451 13.2143 25.9791 11.5399 26.0327 10.6805C26.06 10.2343 25.959 9.7977 25.7406 9.41801C24.5934 7.42324 22.5151 6.06499 21.8201 5.64923V4.24389H21.843C22.0858 4.24389 22.2825 4.04714 22.2825 3.80444V2.22423C22.2825 1.43889 21.6435 0.799988 20.8582 0.799988H17.3778C16.5925 0.799988 15.9536 1.43889 15.9536 2.22423V3.80444C15.9536 4.04714 16.1503 4.24389 16.393 4.24389H16.4161V5.64904C15.9675 5.91735 14.9427 6.57866 13.9639 7.5498V7.24148C14.4645 6.97069 14.8053 6.44085 14.8053 5.8329C14.8053 4.95041 14.0873 4.23253 13.2048 4.23253H6.26118C5.37873 4.23253 4.66084 4.95049 4.66084 5.8329C4.66084 6.441 5.00179 6.97091 5.50252 7.24166V8.58623C4.90099 8.93715 3.26688 9.98021 1.82735 11.7095C1.56872 12.021 1.40389 12.3991 1.35069 12.803C1.27915 13.3465 1.17192 14.2338 1.06751 15.3743C1.04536 15.616 1.22336 15.8299 1.46507 15.852C1.47866 15.8532 1.49219 15.8539 1.50561 15.8539C1.7302 15.8539 1.92186 15.6826 1.94272 15.4545C2.04585 14.3283 2.15149 13.4533 2.22204 12.9178C2.24501 12.7435 2.30325 12.5777 2.39184 12.4296H12.3507C12.4282 13.1606 12.5365 13.9843 12.6859 14.7789C12.8276 15.5325 13.3366 16.1594 14.0476 16.4557C14.2864 16.5551 14.8416 16.8216 14.8416 17.1504C14.8416 17.5032 14.6102 17.7684 14.1535 17.9387C13.3335 18.245 12.7554 19.0005 12.6806 19.8633C12.5076 21.8537 12.3793 25.7051 13.4634 29.1367C13.5547 29.4259 13.697 29.6873 13.8784 29.9128C13.7941 29.918 13.7095 29.9211 13.6246 29.9211H5.84107C3.71647 29.9211 1.9303 28.2644 1.77467 26.1495C1.5737 23.4177 1.58336 20.4053 1.8035 17.196C1.82008 16.9538 1.63727 16.7441 1.39516 16.7275C1.15323 16.7107 0.943228 16.8936 0.926645 17.1358C0.703696 20.3865 0.694089 23.4408 0.898171 26.2139C0.990163 27.4648 1.54792 28.6237 2.46866 29.4774C3.38858 30.3302 4.58628 30.8 5.84107 30.8H13.6247C14.0493 30.8 14.4697 30.7461 14.8768 30.6402C15.1463 30.7435 15.4381 30.7997 15.7411 30.7997L27.3526 30.8C28.2805 30.8 29.0758 30.1058 29.2023 29.1852C29.6379 26.0166 29.6379 22.8034 29.2023 19.6348ZM28.6092 26.0708C28.2591 26.2849 27.8608 26.3976 27.4457 26.3976C26.2141 26.3976 25.2122 25.3958 25.2122 24.1646C25.2122 22.933 26.2142 21.931 27.4457 21.931C27.8495 21.931 28.2378 22.0376 28.5802 22.2403C28.6613 23.5158 28.6712 24.7946 28.6092 26.0708ZM25.1555 10.6262C25.1136 11.2978 25.0214 12.4791 24.8395 13.7028H13.397C13.2153 12.4802 13.1225 11.2983 13.0801 10.6268C13.0633 10.3525 13.1245 10.0863 13.2573 9.85601C13.311 9.76279 13.3672 9.67106 13.4253 9.58073H24.8106C24.8689 9.67106 24.9251 9.76283 24.9787 9.85605C25.1112 10.0862 25.1722 10.3527 25.1555 10.6262ZM6.38145 7.43333H13.085V8.40416H6.38145V7.43333ZM16.8325 2.22423C16.8325 1.92352 17.0771 1.67889 17.3778 1.67889H20.8582C21.1589 1.67889 21.4036 1.92352 21.4036 2.22423V3.36499H16.8325V2.22423ZM20.9412 4.24389V5.46375H17.295V4.24389H20.9412ZM16.9714 6.34268H21.2647C21.6357 6.55939 23.0301 7.41896 24.1459 8.70187H14.09C15.2058 7.41874 16.6008 6.55913 16.9714 6.34268ZM6.26118 5.11144H13.2048C13.6027 5.11144 13.9264 5.4351 13.9264 5.8329C13.9264 6.23059 13.603 6.55406 13.2054 6.55436H6.26062C5.86301 6.55406 5.53968 6.23051 5.53968 5.8329C5.53968 5.4351 5.86335 5.11144 6.26118 5.11144ZM3.15415 11.5506C4.42234 10.2505 5.70847 9.47936 6.05501 9.2832H12.5757C12.5488 9.32771 12.5218 9.37215 12.4959 9.4173C12.2769 9.79676 12.1756 10.2335 12.2029 10.6813C12.2178 10.9163 12.2388 11.2127 12.2672 11.5506H3.15415ZM27.3526 29.9211H22.4951L22.187 29.9208C21.6984 29.9179 21.2806 29.5513 21.2138 29.0655C21.1446 28.5618 21.0864 28.0549 21.0408 27.5588C21.0186 27.3171 20.8047 27.1389 20.563 27.1614C20.3213 27.1836 20.1434 27.3975 20.1656 27.6392C20.2124 28.1483 20.2721 28.6684 20.3431 29.1852C20.38 29.4536 20.4741 29.7025 20.6113 29.9207H15.7411C15.0781 29.9207 14.4996 29.4993 14.3016 28.872C13.2633 25.5853 13.389 21.8647 13.5562 19.9392C13.6019 19.4124 13.9571 18.9503 14.4608 18.7621C15.2614 18.4636 15.7205 17.8761 15.7205 17.1503C15.7205 16.7167 15.4889 16.1033 14.3856 15.6444C13.949 15.4624 13.6365 15.0781 13.5497 14.6164C13.5475 14.6049 13.5454 14.5932 13.5433 14.5816H24.6928C24.6907 14.5931 24.6886 14.6046 24.6865 14.616C24.5992 15.078 24.2866 15.4624 23.8508 15.6443C22.7467 16.1036 22.5149 16.7168 22.5149 17.1504C22.5149 17.4719 22.6054 17.766 22.7754 18.0201H22.1927C21.2648 18.0201 20.4695 18.7143 20.343 19.6348C20.0593 21.6945 19.9597 23.7932 20.0468 25.8725C20.057 26.115 20.2642 26.303 20.5043 26.2931C20.7468 26.283 20.9352 26.0781 20.925 25.8357C20.8401 23.8086 20.9372 21.7627 21.2137 19.7546C21.2808 19.2669 21.7017 18.899 22.1928 18.899H27.3526C27.8437 18.899 28.2646 19.2669 28.3317 19.7546C28.3994 20.2472 28.4551 20.7409 28.5012 21.2354C28.166 21.1146 27.8103 21.0521 27.4457 21.0521C25.7295 21.0521 24.3333 22.4483 24.3333 24.1646C24.3333 25.8805 25.7295 27.2764 27.4457 27.2764C27.8263 27.2764 28.1968 27.2085 28.5447 27.0771C28.4928 27.7413 28.4226 28.4044 28.3317 29.0654C28.2646 29.5532 27.8437 29.9211 27.3526 29.9211Z" fill="#FFBE2E"/>
</svg>
