<svg width="31" height="31" viewBox="0 0 31 31" fill="none" xmlns="http://www.w3.org/2000/svg">
<g clip-path="url(#clip0_229_7846)">
<path d="M11.0156 20.675C14.9507 20.675 18.1406 17.6529 18.1406 13.925C18.1406 10.1971 14.9507 7.17499 11.0156 7.17499C7.0806 7.17499 3.89062 10.1971 3.89062 13.925C3.89062 17.6529 7.0806 20.675 11.0156 20.675Z" fill="#FFF6E0"/>
<path d="M11.1005 21.2342C15.3852 21.2342 18.871 18.0098 18.871 14.0464C18.871 10.083 15.3852 6.85852 11.1005 6.85852C6.81589 6.85852 3.33008 10.083 3.33008 14.0464C3.33008 18.0098 6.81589 21.2342 11.1005 21.2342ZM11.1005 7.73827C14.9001 7.73827 17.9913 10.5681 17.9913 14.0464C17.9913 17.5247 14.9001 20.3545 11.1005 20.3545C7.30099 20.3545 4.20982 17.5247 4.20982 14.0464C4.20982 10.5681 7.30099 7.73827 11.1005 7.73827Z" fill="#FFBE2E"/>
<path d="M13.4805 12.9311C13.4805 13.6456 14.0618 14.227 14.7764 14.227C15.491 14.227 16.0723 13.6456 16.0723 12.9311C16.0723 12.2166 15.491 11.6352 14.7764 11.6352C14.0618 11.6352 13.4805 12.2166 13.4805 12.9311ZM14.7764 12.515C15.0058 12.515 15.1925 12.7017 15.1925 12.9311C15.1925 13.1605 15.0058 13.3472 14.7764 13.3472C14.5469 13.3472 14.3601 13.1605 14.3601 12.9311C14.3601 12.7017 14.5469 12.515 14.7764 12.515Z" fill="#FFBE2E"/>
<path d="M12.6768 12.0808C13.3913 12.0808 13.9727 11.4995 13.9727 10.7849C13.9727 10.0704 13.3913 9.48901 12.6768 9.48901C11.9622 9.48901 11.3809 10.0704 11.3809 10.7849C11.3809 11.4995 11.9622 12.0808 12.6768 12.0808ZM12.6768 10.3687C12.9062 10.3687 13.0929 10.5554 13.0929 10.7849C13.0929 11.0143 12.9062 11.201 12.6768 11.201C12.4473 11.201 12.2606 11.0143 12.2606 10.7849C12.2606 10.5554 12.4473 10.3687 12.6768 10.3687Z" fill="#FFBE2E"/>
<path d="M7.42479 14.227C8.13939 14.227 8.72076 13.6456 8.72076 12.9311C8.72076 12.2166 8.13939 11.6352 7.42479 11.6352C6.71027 11.6352 6.12891 12.2166 6.12891 12.9311C6.12891 13.6456 6.71027 14.227 7.42479 14.227ZM7.42479 12.515C7.65429 12.515 7.84101 12.7017 7.84101 12.9311C7.84101 13.1605 7.65429 13.3472 7.42479 13.3472C7.19537 13.3472 7.00869 13.1605 7.00869 12.9311C7.00869 12.7017 7.19537 12.515 7.42479 12.515Z" fill="#FFBE2E"/>
<path d="M9.52249 12.0808C10.237 12.0808 10.8184 11.4995 10.8184 10.7849C10.8184 10.0704 10.237 9.48901 9.52249 9.48901C8.80792 9.48901 8.22656 10.0704 8.22656 10.7849C8.22656 11.4995 8.80792 12.0808 9.52249 12.0808ZM9.52249 10.3687C9.75191 10.3687 9.93859 10.5554 9.93859 10.7849C9.93859 11.0143 9.75191 11.201 9.52249 11.201C9.29302 11.201 9.10635 11.0143 9.10635 10.7849C9.10635 10.5554 9.29302 10.3687 9.52249 10.3687Z" fill="#FFBE2E"/>
<path d="M8.8778 13.8384C8.81668 14.1259 8.65333 14.3889 8.40542 14.599C7.84858 15.0706 7.55758 15.7597 7.60697 16.4893C7.68392 17.6259 8.59985 18.5333 9.73753 18.5998C10.1127 18.6217 10.4893 18.5508 10.8269 18.3943C10.9975 18.3153 11.2012 18.3153 11.3717 18.3943C11.6693 18.5322 11.9972 18.6037 12.3277 18.6037C12.3721 18.6037 12.4167 18.6024 12.4612 18.5998C13.5988 18.5332 14.5147 17.6259 14.5916 16.4893C14.641 15.7596 14.35 15.0706 13.7932 14.599C13.5453 14.3889 13.382 14.1259 13.3209 13.8384C13.2148 13.3393 12.9503 12.9005 12.556 12.5695C11.7255 11.8723 10.4731 11.8723 9.64254 12.5695C9.2483 12.9006 8.98389 13.3393 8.8778 13.8384ZM10.2082 13.2433C10.7162 12.8169 11.4824 12.8169 11.9903 13.2433C12.2329 13.4469 12.3954 13.7159 12.4603 14.0212C12.5623 14.5011 12.8265 14.9331 13.2245 15.2702C13.5658 15.5593 13.7441 15.982 13.7138 16.4299C13.6667 17.1255 13.1061 17.6808 12.4097 17.7216C12.1759 17.7352 11.9508 17.6931 11.7415 17.596C11.5374 17.5015 11.3183 17.4543 11.0993 17.4543C10.8802 17.4543 10.6611 17.5015 10.457 17.596C10.2477 17.6931 10.0228 17.7353 9.7889 17.7216C9.09245 17.6808 8.53183 17.1255 8.48473 16.4299C8.45439 15.982 8.63278 15.5593 8.97407 15.2702C9.37205 14.9331 9.63635 14.5012 9.73832 14.0212C9.80327 13.716 9.96572 13.4469 10.2082 13.2433Z" fill="#FFBE2E"/>
<path d="M28.4085 24.3504C29.3427 23.1584 29.8568 21.6755 29.8568 20.156C29.8568 16.4016 26.8024 13.3472 23.048 13.3472C22.3462 13.3472 21.6604 13.4527 21.0016 13.6605C20.9542 11.4857 20.8415 9.31376 20.6626 7.15346C20.5987 6.3861 20.7661 5.63745 21.1469 4.98844C21.6644 4.10579 22.1278 2.9001 21.3963 2.16855C21.0828 1.85524 20.2789 1.40105 16.9328 1.07553C14.8441 0.872363 12.5506 0.799988 11.1006 0.799988C9.65061 0.799988 7.35708 0.872363 5.26833 1.07559C1.92217 1.4011 1.11841 1.85529 0.804747 2.16873C0.0733107 2.9001 0.536712 4.10579 1.05425 4.98863C1.43495 5.63753 1.6024 6.38614 1.53841 7.15335C1.5136 7.45001 1.48903 7.76584 1.46123 8.14744C1.44351 8.38973 1.62563 8.60051 1.86791 8.61818C2.11026 8.63595 2.321 8.45378 2.33865 8.21149C2.36627 7.83311 2.39055 7.52017 2.41513 7.22662C2.49425 6.27754 2.28604 5.34968 1.81313 4.54351C1.78909 4.50245 1.76657 4.46228 1.74416 4.42216C3.07589 3.86139 7.42488 3.49571 11.1006 3.49571C12.4997 3.49571 14.7198 3.56468 16.7548 3.75817C19.0022 3.9719 20.0075 4.23752 20.4557 4.42439C20.4337 4.46374 20.4117 4.50315 20.388 4.54345C19.9151 5.34968 19.7068 6.27746 19.7859 7.22636C20.2419 12.7359 20.2659 18.3219 19.8598 23.8371C18.916 23.8368 17.972 23.8443 17.033 23.8596C16.9125 22.3632 15.6562 21.1824 14.1293 21.1824C12.5229 21.1824 11.2161 22.4893 11.2161 24.0957C11.2161 24.7975 11.4673 25.4667 11.9175 25.9912C11.8049 26.1225 11.7048 26.2627 11.6179 26.4102C8.98668 26.4296 6.32118 26.3011 3.69132 26.027C3.00375 25.9558 2.46387 25.4021 2.40756 24.7101C2.00651 19.8159 1.94498 14.8511 2.22469 9.95355C2.23853 9.711 2.05313 9.50314 1.81061 9.48926C1.56815 9.47554 1.36023 9.66083 1.34633 9.90334C1.06428 14.8414 1.12633 19.8472 1.53067 24.7816C1.62123 25.8954 2.49179 26.7871 3.60035 26.902C6.08834 27.1613 8.60763 27.2923 11.1016 27.2922C11.1604 27.2922 11.2191 27.2914 11.2779 27.2913C11.2375 27.4853 11.216 27.6846 11.216 27.8867C11.216 29.4931 12.5229 30.7999 14.1292 30.7999C15.6561 30.7999 16.9124 29.6192 17.0329 28.1228C18.8831 28.1531 20.7523 28.1531 22.602 28.1228C22.7225 29.6192 23.9789 30.7999 25.5058 30.7999C25.9746 30.7999 26.4411 30.6857 26.8548 30.4696C27.0702 30.3572 27.1536 30.0914 27.0412 29.8761C26.9286 29.6607 26.6629 29.5772 26.4476 29.6898C26.1549 29.8426 25.838 29.9202 25.5058 29.9202C24.3846 29.9202 23.4723 29.008 23.4723 27.8867C23.4723 27.8358 23.475 27.7803 23.4808 27.7121C23.4913 27.588 23.4487 27.4652 23.3635 27.3743C23.2783 27.2834 23.1587 27.2328 23.0341 27.2352C20.9 27.276 18.7356 27.276 16.601 27.2352C16.4771 27.2329 16.3568 27.2834 16.2715 27.3743C16.1864 27.4652 16.1437 27.588 16.1542 27.7121C16.16 27.7799 16.1627 27.8354 16.1627 27.8867C16.1627 29.008 15.2505 29.9202 14.1293 29.9202C13.008 29.9202 12.0958 29.008 12.0958 27.8867C12.0958 27.2845 12.3612 26.7164 12.8239 26.328C12.9234 26.2444 12.981 26.1211 12.981 25.9911C12.981 25.8612 12.9235 25.7378 12.8239 25.6542C12.3612 25.2659 12.0958 24.6978 12.0958 24.0955C12.0958 22.9743 13.008 22.0621 14.1293 22.0621C15.2505 22.0621 16.1627 22.9743 16.1627 24.0955C16.1627 24.1469 16.16 24.2024 16.1542 24.2702C16.1437 24.3943 16.1864 24.517 16.2715 24.608C16.3568 24.6989 16.4769 24.7497 16.601 24.747C18.7355 24.7063 20.8999 24.7063 23.0341 24.747C23.1588 24.7497 23.2783 24.6989 23.3635 24.608C23.4487 24.517 23.4913 24.3943 23.4808 24.2702C23.475 24.2019 23.4723 24.1464 23.4723 24.0955C23.4723 22.9743 24.3846 22.0621 25.5058 22.0621C26.6273 22.0621 27.5398 22.9743 27.5398 24.0955C27.5398 24.6979 27.2744 25.2659 26.8114 25.654C26.7117 25.7376 26.6541 25.861 26.6541 25.9911C26.6541 26.1212 26.7117 26.2446 26.8114 26.3282C27.2744 26.7164 27.5398 27.2844 27.5398 27.8867C27.5398 28.1435 27.4927 28.3937 27.3996 28.6301C27.3107 28.8563 27.4219 29.1116 27.648 29.2005C27.8741 29.2894 28.1295 29.1782 28.2184 28.9522C28.3518 28.6127 28.4196 28.2543 28.4196 27.8868C28.4196 27.1848 28.1682 26.5156 27.7178 25.9912C28.1134 25.5307 28.3554 24.9583 28.4085 24.3504ZM11.1007 2.61588C11.0211 2.61588 3.76088 2.62855 1.38868 3.62627C1.2675 3.23553 1.27619 2.94151 1.4268 2.7909C1.5458 2.67195 2.1807 2.25987 5.35353 1.95119C7.41096 1.75107 9.67132 1.67975 11.1006 1.67975C12.5299 1.67975 14.7902 1.75107 16.8476 1.95119C20.0205 2.25987 20.6554 2.67195 20.7742 2.79078C20.925 2.94151 20.9337 3.23547 20.8126 3.62621C18.4403 2.62861 11.1804 2.61588 11.1007 2.61588ZM25.5059 21.1824C23.979 21.1824 22.7226 22.3631 22.6021 23.8596C21.9838 23.8494 21.363 23.844 20.7417 23.8406C20.9662 20.7683 21.0588 17.6744 21.0179 14.5837C21.6663 14.3469 22.3478 14.227 23.048 14.227C26.3173 14.227 28.9771 16.8867 28.9771 20.156C28.9771 21.1716 28.7136 22.1686 28.2234 23.0465C27.8013 21.9572 26.7427 21.1824 25.5059 21.1824Z" fill="#FFBE2E"/>
</g>
<defs>
<clipPath id="clip0_229_7846">
<rect width="30" height="30" fill="white" transform="translate(0.140625 0.799988)"/>
</clipPath>
</defs>
</svg>
